<svg width="156" height="150" viewBox="0 0 156 150" fill="none" xmlns="http://www.w3.org/2000/svg">
<path d="M94.2834 101.163C92.2146 101.163 90.6961 100.457 89.7277 99.0451C88.8034 97.6333 88.3412 95.7141 88.3412 93.2876C88.3412 90.5964 88.8914 87.4199 89.9918 83.758C91.0922 80.0962 92.6328 76.1476 94.6135 71.9122C96.5943 67.6768 98.9492 63.3311 101.678 58.8752C104.451 54.3751 107.488 49.9412 110.79 45.5734C110.085 45.794 109.271 46.1029 108.347 46.4999C107.422 46.8529 106.586 47.2499 105.838 47.6911C103.681 48.9706 101.304 50.6029 98.7071 52.5883C96.1101 54.5295 93.4251 56.6913 90.652 59.0737C87.923 61.412 85.238 63.8385 82.597 66.3533C79.956 68.868 77.4911 71.3166 75.2022 73.699C72.9134 76.0373 70.9326 78.1991 69.26 80.1844C67.5874 82.1256 66.3329 83.736 65.4966 85.0154C65.1885 85.7213 64.9024 86.3831 64.6383 87.0007C64.4182 87.6184 64.1981 88.1919 63.978 88.7214C63.89 89.0302 63.6479 89.317 63.2517 89.5817C62.8996 89.8464 62.5035 89.9787 62.0633 89.9787C61.0949 89.9787 60.6108 89.2949 60.6108 87.9272C60.6108 87.486 60.6548 86.9787 60.7428 86.4051C60.8749 85.8316 61.0729 85.1919 61.337 84.486C61.5571 83.9566 62.1293 82.7654 63.0537 80.9124C63.978 79.0594 65.1225 76.8535 66.487 74.2946C67.8955 71.6916 69.4141 68.8239 71.0427 65.6915C72.6713 62.5591 74.2779 59.4046 75.8625 56.2281C77.0069 53.978 77.9753 51.728 78.7676 49.4779C79.6039 47.2279 80.022 45.1984 80.022 43.3896C80.022 41.5807 79.4498 40.1027 78.3054 38.9557C77.205 37.8086 75.2683 37.235 72.4952 37.235C68.4017 37.235 64.1541 37.6542 59.7524 38.4924C55.3508 39.3307 50.9491 40.4998 46.5475 41.9998C42.1458 43.4999 37.8982 45.2425 33.8047 47.2279C29.7112 49.2132 25.9037 51.353 22.3824 53.6471C18.8611 55.9413 15.7799 58.3016 13.1389 60.7281C10.4979 63.1547 8.42916 65.5812 6.9326 68.0077C5.48006 70.3901 4.75378 72.6622 4.75378 74.824C4.75378 76.7211 5.21596 78.0005 6.14031 78.6623C7.06465 79.28 8.23109 79.5888 9.63962 79.5888C10.564 79.5888 11.5103 79.4785 12.4787 79.2579C13.4471 79.0373 14.3494 78.8388 15.1857 78.6623C15.2737 78.6182 15.4278 78.5961 15.6479 78.5961C16.3962 78.5961 16.7703 78.8829 16.7703 79.4565C16.7703 79.8535 16.4842 80.1403 15.912 80.3168C14.8996 80.6256 13.7992 80.8903 12.6107 81.1109C11.4663 81.3315 10.2999 81.4418 9.11142 81.4418C7.57084 81.4418 6.09629 81.2212 4.68776 80.78C3.27923 80.3388 2.1348 79.5888 1.25447 78.53C0.418157 77.4711 0 76.0593 0 74.2946C0 72.0004 0.814305 69.596 2.44292 67.0812C4.07153 64.5665 6.33838 62.0517 9.24347 59.5369C12.1486 57.0222 15.5158 54.5957 19.3453 52.2574C23.1747 49.875 27.2902 47.6691 31.6919 45.6396C36.1376 43.6102 40.7153 41.8234 45.4251 40.2792C50.1348 38.7351 54.8226 37.5439 59.4883 36.7056C64.1541 35.8232 68.5998 35.382 72.8253 35.382C77.0069 35.382 79.934 36.11 81.6066 37.5659C83.2793 39.0218 84.1156 40.9189 84.1156 43.2572C84.1156 45.1543 83.6974 47.2499 82.8611 49.5441C82.0248 51.8383 80.9904 54.1986 79.7579 56.6251C79.3618 57.3751 78.7456 58.5222 77.9093 60.0664C77.117 61.6105 76.1706 63.4194 75.0702 65.4929C74.0138 67.5224 72.8914 69.6842 71.7029 71.9784C70.5585 74.2284 69.4581 76.4564 68.4017 78.6623C70.5145 76.0593 73.0014 73.2578 75.8625 70.2577C78.7236 67.2136 81.7827 64.1473 85.0399 61.059C88.3412 57.9707 91.6864 55.0589 95.0757 52.3236C98.509 49.5441 101.832 47.1396 105.045 45.1102C106.366 44.2719 107.664 43.4999 108.941 42.794C110.217 42.0881 111.472 41.5145 112.704 41.0733C113.056 40.941 113.497 40.9851 114.025 41.2057C114.597 41.3822 115.125 41.6469 115.609 41.9998C116.094 42.3528 116.424 42.7057 116.6 43.0587C116.688 43.544 116.556 44.294 116.204 45.3087C115.852 46.2793 115.213 47.272 114.289 48.2867C111.868 50.7574 109.557 53.5809 107.356 56.7575C105.155 59.8899 103.131 63.1767 101.282 66.618C99.4333 70.0592 97.8267 73.4563 96.4622 76.8094C95.0977 80.1624 94.0193 83.3168 93.227 86.2728C92.4787 89.1846 92.1046 91.6994 92.1046 93.817C92.1046 97.0818 93.117 98.7142 95.1417 98.7142C96.1981 98.7142 97.4526 98.4054 98.9051 97.7877C100.358 97.1701 101.832 96.398 103.329 95.4715C104.869 94.5891 106.19 93.7288 107.29 92.8906C107.466 92.8023 107.576 92.7582 107.62 92.7582C107.796 92.7582 107.907 92.8244 107.951 92.9567C108.039 93.1332 108.105 93.2656 108.149 93.3538C108.149 93.4862 108.127 93.6406 108.083 93.817C108.039 93.9935 107.929 94.1479 107.752 94.2803C107.488 94.545 106.938 95.0303 106.102 95.7362C105.266 96.4862 104.209 97.2803 102.933 98.1186C101.7 98.9569 100.336 99.6628 98.8391 100.236C97.3426 100.854 95.824 101.163 94.2834 101.163Z" fill="#B02316"/>
<path d="M81.0967 150C122.464 150 155.999 116.421 155.999 75C155.999 33.5786 122.464 0 81.0967 0C61.0273 0 42.8022 7.90401 29.3548 20.7719C30.8753 20.8814 32.3766 21.0591 33.8557 21.3041C46.4503 10.1861 62.9865 3.44037 81.0967 3.44037C120.567 3.44037 152.564 35.4787 152.564 75C152.564 114.521 120.567 146.56 81.0967 146.56C58.2078 146.56 37.8326 135.785 24.7525 119.025C23.229 118.994 21.3099 119.037 19.9355 119.037C33.5312 137.975 56.0253 150 81.0967 150Z" fill="#B02316"/>
<path d="M129.109 105.693C129.109 105.92 129.109 106.126 129.109 106.31C129.109 106.495 129.109 106.701 129.109 106.928C129.109 107.184 129.109 107.503 129.109 107.886C129.109 108.263 129.109 108.664 129.109 109.09C129.109 109.516 129.109 109.931 129.109 110.336C129.109 110.741 129.109 111.099 129.109 111.411C129.109 111.717 129.109 111.94 129.109 112.082C129.109 112.224 129.075 112.342 129.007 112.434C128.939 112.519 128.853 112.576 128.747 112.604C128.649 112.633 128.547 112.633 128.441 112.604C128.343 112.576 128.26 112.519 128.192 112.434C128.124 112.342 128.09 112.224 128.09 112.082C128.09 111.926 128.09 111.735 128.09 111.507C128.09 111.28 128.09 111.049 128.09 110.815C128.09 110.574 128.09 110.354 128.09 110.155C128.09 109.949 128.09 109.796 128.09 109.697C128.09 109.377 128.162 109.111 128.305 108.898C128.456 108.685 128.649 108.525 128.883 108.419C129.117 108.312 129.362 108.259 129.619 108.259C130.216 108.259 130.752 108.259 131.228 108.259C131.703 108.259 132.141 108.259 132.541 108.259C132.677 108.259 132.783 108.245 132.859 108.217C132.934 108.181 132.983 108.128 133.006 108.057C133.036 107.986 133.051 107.894 133.051 107.78C133.051 107.702 133.051 107.585 133.051 107.429C133.051 107.265 133.051 107.084 133.051 106.885C133.051 106.687 133.051 106.484 133.051 106.278C133.051 106.065 133.051 105.87 133.051 105.693C133.051 105.551 133.085 105.437 133.153 105.352C133.221 105.26 133.304 105.199 133.402 105.171C133.508 105.142 133.61 105.142 133.708 105.171C133.814 105.199 133.901 105.26 133.969 105.352C134.037 105.437 134.071 105.551 134.071 105.693C134.071 105.806 134.071 105.998 134.071 106.268C134.071 106.538 134.071 106.85 134.071 107.205C134.071 107.56 134.071 107.929 134.071 108.312C134.071 108.689 134.071 109.051 134.071 109.399C134.071 109.747 134.071 110.048 134.071 110.304C134.071 110.56 134.071 110.737 134.071 110.836C134.071 110.986 134.071 111.127 134.071 111.262C134.071 111.39 134.071 111.522 134.071 111.656C134.071 111.784 134.071 111.926 134.071 112.082C134.071 112.26 134.018 112.395 133.912 112.487C133.814 112.579 133.697 112.626 133.561 112.626C133.425 112.626 133.304 112.579 133.198 112.487C133.1 112.395 133.051 112.26 133.051 112.082C133.051 111.94 133.051 111.802 133.051 111.667C133.051 111.525 133.051 111.387 133.051 111.252C133.051 111.11 133.051 110.971 133.051 110.836C133.051 110.765 133.051 110.609 133.051 110.368C133.051 110.126 133.051 109.832 133.051 109.484C133.051 109.136 133.051 108.767 133.051 108.376C133.051 107.986 133.051 107.61 133.051 107.247C133.051 106.878 133.051 106.555 133.051 106.278C133.051 106.001 133.051 105.806 133.051 105.693C133.051 105.551 133.085 105.437 133.153 105.352C133.221 105.26 133.304 105.199 133.402 105.171C133.508 105.142 133.61 105.142 133.708 105.171C133.814 105.199 133.901 105.26 133.969 105.352C134.037 105.437 134.071 105.551 134.071 105.693C134.071 105.87 134.071 106.058 134.071 106.257C134.071 106.449 134.071 106.64 134.071 106.832C134.071 107.024 134.071 107.201 134.071 107.365C134.071 107.528 134.071 107.666 134.071 107.78C134.071 108.064 134.014 108.316 133.901 108.536C133.787 108.749 133.618 108.916 133.391 109.037C133.164 109.157 132.881 109.218 132.541 109.218C131.945 109.218 131.409 109.218 130.933 109.218C130.457 109.218 130.019 109.218 129.619 109.218C129.521 109.218 129.434 109.232 129.358 109.26C129.283 109.289 129.223 109.338 129.177 109.409C129.132 109.48 129.109 109.576 129.109 109.697C129.109 109.846 129.109 110.027 129.109 110.24C129.109 110.446 129.109 110.662 129.109 110.89C129.109 111.117 129.109 111.337 129.109 111.55C129.109 111.756 129.109 111.933 129.109 112.082C129.109 112.224 129.075 112.342 129.007 112.434C128.939 112.519 128.853 112.576 128.747 112.604C128.649 112.633 128.547 112.633 128.441 112.604C128.343 112.576 128.26 112.519 128.192 112.434C128.124 112.342 128.09 112.224 128.09 112.082C128.09 111.969 128.09 111.784 128.09 111.529C128.09 111.273 128.09 110.975 128.09 110.634C128.09 110.293 128.09 109.938 128.09 109.569C128.09 109.2 128.09 108.841 128.09 108.493C128.09 108.146 128.09 107.833 128.09 107.556C128.09 107.279 128.09 107.07 128.09 106.928C128.09 106.793 128.09 106.658 128.09 106.523C128.09 106.381 128.09 106.243 128.09 106.108C128.09 105.973 128.09 105.835 128.09 105.693C128.09 105.515 128.139 105.38 128.237 105.288C128.343 105.196 128.464 105.15 128.6 105.15C128.736 105.15 128.853 105.196 128.951 105.288C129.056 105.38 129.109 105.515 129.109 105.693Z" fill="#20364B"/>
<path d="M124.341 112.045C124.039 112.239 123.712 112.385 123.36 112.486C123.008 112.579 122.674 112.625 122.358 112.625C121.767 112.632 121.225 112.486 120.733 112.185C120.241 111.884 119.847 111.455 119.552 110.896C119.263 110.33 119.119 109.661 119.119 108.887C119.119 108.307 119.204 107.788 119.372 107.33C119.548 106.864 119.787 106.471 120.09 106.148C120.392 105.819 120.74 105.572 121.134 105.407C121.535 105.235 121.957 105.15 122.4 105.15C122.709 105.15 123.033 105.192 123.371 105.278C123.715 105.364 124.035 105.504 124.331 105.697C124.478 105.798 124.563 105.912 124.584 106.041C124.612 106.17 124.591 106.288 124.52 106.395C124.457 106.503 124.362 106.574 124.236 106.61C124.109 106.646 123.972 106.614 123.824 106.514C123.606 106.37 123.371 106.27 123.117 106.213C122.864 106.148 122.625 106.116 122.4 106.116C121.957 106.116 121.56 106.227 121.208 106.449C120.856 106.671 120.578 106.99 120.375 107.405C120.171 107.82 120.069 108.315 120.069 108.887C120.069 109.317 120.125 109.704 120.237 110.047C120.35 110.391 120.508 110.685 120.712 110.928C120.923 111.165 121.166 111.347 121.44 111.476C121.721 111.598 122.027 111.659 122.358 111.659C122.583 111.659 122.825 111.626 123.086 111.562C123.353 111.49 123.596 111.379 123.814 111.229C123.968 111.129 124.109 111.096 124.236 111.132C124.362 111.161 124.457 111.229 124.52 111.336C124.591 111.444 124.615 111.566 124.594 111.702C124.573 111.83 124.489 111.945 124.341 112.045Z" fill="#20364B"/>
<path d="M114.135 112.082C114.135 111.847 114.135 111.634 114.135 111.442C114.135 111.25 114.135 111.076 114.135 110.919C114.135 110.756 114.135 110.606 114.135 110.471C114.135 110.13 114.135 109.782 114.135 109.426C114.135 109.071 114.135 108.715 114.135 108.36C114.135 107.997 114.135 107.649 114.135 107.314C114.135 107.151 114.135 106.991 114.135 106.835C114.135 106.671 114.135 106.497 114.135 106.312C114.135 106.127 114.135 105.917 114.135 105.683C114.135 105.505 114.183 105.373 114.279 105.288C114.382 105.196 114.5 105.15 114.633 105.15C114.766 105.15 114.881 105.196 114.977 105.288C115.08 105.373 115.132 105.505 115.132 105.683C115.132 105.917 115.132 106.127 115.132 106.312C115.132 106.497 115.132 106.671 115.132 106.835C115.132 106.991 115.132 107.151 115.132 107.314C115.132 107.649 115.132 107.997 115.132 108.36C115.132 108.715 115.132 109.071 115.132 109.426C115.132 109.782 115.132 110.13 115.132 110.471C115.132 110.606 115.132 110.756 115.132 110.919C115.132 111.076 115.132 111.25 115.132 111.442C115.132 111.634 115.132 111.847 115.132 112.082C115.132 112.266 115.08 112.405 114.977 112.498C114.881 112.583 114.766 112.626 114.633 112.626C114.5 112.626 114.382 112.583 114.279 112.498C114.183 112.405 114.135 112.266 114.135 112.082Z" fill="#20364B"/>
<path d="M104.166 112.092C104.166 111.936 104.166 111.783 104.166 111.634C104.166 111.477 104.166 111.328 104.166 111.186C104.166 111.036 104.166 110.898 104.166 110.77C104.166 110.642 104.166 110.489 104.166 110.311C104.166 110.134 104.166 109.942 104.166 109.735C104.166 109.529 104.166 109.319 104.166 109.106C104.166 108.893 104.166 108.683 104.166 108.477C104.166 108.271 104.166 108.082 104.166 107.912C104.166 107.713 104.166 107.528 104.166 107.357C104.166 107.179 104.166 107.012 104.166 106.856C104.166 106.692 104.166 106.529 104.166 106.365C104.166 106.195 104.166 106.013 104.166 105.821C104.166 105.672 104.187 105.548 104.228 105.448C104.27 105.341 104.325 105.263 104.394 105.213C104.471 105.164 104.554 105.146 104.644 105.16C104.741 105.167 104.841 105.206 104.945 105.277C105.049 105.349 105.149 105.455 105.246 105.597C105.35 105.74 105.447 105.878 105.537 106.013C105.634 106.141 105.724 106.269 105.807 106.397C105.897 106.525 105.983 106.65 106.066 106.771C106.149 106.891 106.232 107.012 106.315 107.133C106.44 107.318 106.589 107.535 106.762 107.784C106.935 108.025 107.115 108.281 107.302 108.552C107.496 108.822 107.683 109.088 107.863 109.351C108.042 109.615 108.205 109.856 108.351 110.077C108.489 110.283 108.631 110.475 108.776 110.653C108.929 110.83 109.07 110.997 109.202 111.154C109.333 111.31 109.441 111.46 109.524 111.602C109.607 111.744 109.648 111.883 109.648 112.018C109.648 112.16 109.624 112.277 109.576 112.37C109.534 112.455 109.475 112.515 109.399 112.551C109.33 112.594 109.247 112.604 109.15 112.583C109.06 112.569 108.963 112.522 108.859 112.444C108.755 112.366 108.655 112.259 108.558 112.124C108.454 111.982 108.402 111.858 108.402 111.751C108.409 111.637 108.437 111.524 108.486 111.41C108.534 111.296 108.582 111.161 108.631 111.004C108.686 110.841 108.714 110.638 108.714 110.397C108.714 110.212 108.714 109.998 108.714 109.757C108.714 109.515 108.714 109.266 108.714 109.01C108.714 108.747 108.714 108.491 108.714 108.242C108.714 107.993 108.714 107.769 108.714 107.57C108.714 107.364 108.714 107.204 108.714 107.091C108.714 106.934 108.714 106.781 108.714 106.632C108.714 106.475 108.714 106.319 108.714 106.163C108.714 106.006 108.714 105.85 108.714 105.693C108.714 105.509 108.759 105.373 108.849 105.288C108.946 105.196 109.057 105.15 109.181 105.15C109.306 105.15 109.413 105.196 109.503 105.288C109.6 105.373 109.648 105.509 109.648 105.693C109.648 105.85 109.648 106.003 109.648 106.152C109.648 106.294 109.648 106.447 109.648 106.611C109.648 106.767 109.648 106.952 109.648 107.165C109.648 107.378 109.648 107.638 109.648 107.944C109.648 108.242 109.648 108.555 109.648 108.882C109.648 109.202 109.648 109.508 109.648 109.799C109.648 110.084 109.648 110.318 109.648 110.503C109.648 110.603 109.648 110.702 109.648 110.802C109.648 110.901 109.648 111.001 109.648 111.1C109.648 111.2 109.648 111.3 109.648 111.399C109.648 111.499 109.648 111.602 109.648 111.708C109.648 111.808 109.648 111.911 109.648 112.018C109.648 112.16 109.624 112.277 109.576 112.37C109.534 112.455 109.475 112.515 109.399 112.551C109.33 112.594 109.247 112.604 109.15 112.583C109.06 112.569 108.963 112.522 108.859 112.444C108.755 112.366 108.655 112.259 108.558 112.124C108.475 112.011 108.402 111.907 108.34 111.815C108.278 111.723 108.219 111.637 108.164 111.559C108.108 111.474 108.053 111.392 107.997 111.314C107.949 111.236 107.897 111.154 107.842 111.068C107.786 110.983 107.724 110.887 107.655 110.781C107.544 110.617 107.426 110.439 107.302 110.247C107.177 110.055 107.046 109.86 106.907 109.661C106.769 109.462 106.63 109.266 106.492 109.074C106.36 108.875 106.232 108.687 106.108 108.509C105.983 108.324 105.869 108.153 105.765 107.997C105.689 107.883 105.62 107.784 105.557 107.698C105.502 107.613 105.454 107.538 105.412 107.474C105.37 107.41 105.332 107.357 105.298 107.314C105.27 107.265 105.242 107.218 105.215 107.176C105.187 107.14 105.166 107.112 105.152 107.091C105.139 107.069 105.125 107.055 105.111 107.048C105.104 107.041 105.101 107.044 105.101 107.059C105.101 107.073 105.101 107.094 105.101 107.122C105.101 107.151 105.101 107.19 105.101 107.24C105.101 107.29 105.101 107.343 105.101 107.4C105.101 107.45 105.101 107.506 105.101 107.57C105.101 107.627 105.101 107.691 105.101 107.762C105.101 107.826 105.101 107.901 105.101 107.986C105.101 108.072 105.101 108.168 105.101 108.274C105.101 108.48 105.101 108.683 105.101 108.882C105.101 109.074 105.101 109.27 105.101 109.469C105.101 109.668 105.101 109.874 105.101 110.087C105.101 110.301 105.101 110.528 105.101 110.77C105.101 110.926 105.101 111.076 105.101 111.218C105.101 111.36 105.101 111.502 105.101 111.644C105.101 111.779 105.101 111.929 105.101 112.092C105.101 112.27 105.052 112.405 104.955 112.498C104.865 112.583 104.758 112.626 104.633 112.626C104.509 112.626 104.398 112.583 104.301 112.498C104.211 112.405 104.166 112.27 104.166 112.092Z" fill="#20364B"/>
<path d="M95.1318 105.693C95.1318 105.836 95.1318 105.992 95.1318 106.163C95.1318 106.333 95.1318 106.504 95.1318 106.675C95.1318 106.845 95.1318 107.002 95.1318 107.144C95.1318 107.528 95.1318 107.862 95.1318 108.146C95.1318 108.424 95.1318 108.683 95.1318 108.925C95.1318 109.159 95.1318 109.405 95.1318 109.661C95.1318 110.052 95.2079 110.4 95.3602 110.706C95.5125 111.004 95.7236 111.239 95.9936 111.41C96.2705 111.58 96.5889 111.666 96.9489 111.666C97.3227 111.666 97.6411 111.58 97.9041 111.41C98.1741 111.239 98.3818 111.004 98.5271 110.706C98.6725 110.4 98.7452 110.052 98.7452 109.661C98.7452 109.405 98.7452 109.159 98.7452 108.925C98.7452 108.683 98.7452 108.424 98.7452 108.146C98.7452 107.862 98.7452 107.528 98.7452 107.144C98.7452 107.023 98.7452 106.874 98.7452 106.696C98.7452 106.511 98.7452 106.33 98.7452 106.152C98.7452 105.974 98.7452 105.821 98.7452 105.693C98.7452 105.516 98.7902 105.381 98.8802 105.288C98.9771 105.196 99.0878 105.15 99.2124 105.15C99.337 105.15 99.4443 105.196 99.5343 105.288C99.6312 105.381 99.6797 105.516 99.6797 105.693C99.6797 105.836 99.6797 105.992 99.6797 106.163C99.6797 106.333 99.6797 106.504 99.6797 106.675C99.6797 106.845 99.6797 107.002 99.6797 107.144C99.6797 107.4 99.6797 107.649 99.6797 107.89C99.6797 108.125 99.6797 108.385 99.6797 108.669C99.6797 108.946 99.6797 109.277 99.6797 109.661C99.6797 110.087 99.6139 110.482 99.4824 110.845C99.3509 111.207 99.164 111.524 98.9217 111.794C98.6794 112.057 98.3922 112.263 98.0599 112.412C97.7276 112.554 97.3573 112.626 96.9489 112.626C96.5543 112.626 96.1874 112.554 95.8482 112.412C95.516 112.263 95.2252 112.057 94.976 111.794C94.7337 111.524 94.5434 111.207 94.4049 110.845C94.2665 110.482 94.1973 110.087 94.1973 109.661C94.1973 109.277 94.1973 108.946 94.1973 108.669C94.1973 108.385 94.1973 108.125 94.1973 107.89C94.1973 107.649 94.1973 107.4 94.1973 107.144C94.1973 107.023 94.1973 106.874 94.1973 106.696C94.1973 106.511 94.1973 106.33 94.1973 106.152C94.1973 105.974 94.1973 105.821 94.1973 105.693C94.1973 105.516 94.2423 105.381 94.3322 105.288C94.4292 105.196 94.5399 105.15 94.6645 105.15C94.7891 105.15 94.8964 105.196 94.9864 105.288C95.0833 105.381 95.1318 105.516 95.1318 105.693Z" fill="#20364B"/>
<path d="M89.3002 106.461C89.0144 106.34 88.7357 106.252 88.4642 106.195C88.1998 106.138 87.9462 106.109 87.7032 106.109C87.3102 106.116 86.9565 106.191 86.6421 106.333C86.3348 106.475 86.074 106.675 85.8597 106.931C85.6453 107.179 85.4809 107.471 85.3666 107.805C85.2523 108.139 85.1951 108.498 85.1951 108.882C85.1951 109.273 85.2487 109.636 85.3559 109.97C85.4631 110.304 85.6167 110.599 85.8168 110.855C86.024 111.111 86.2777 111.31 86.5778 111.452C86.885 111.595 87.2316 111.666 87.6175 111.666C87.9676 111.666 88.2498 111.644 88.4642 111.602C88.6857 111.552 88.8501 111.492 88.9573 111.42C89.0716 111.342 89.1395 111.264 89.1609 111.186C89.2181 111.022 89.2466 110.837 89.2466 110.631C89.2466 110.425 89.2466 110.205 89.2466 109.97C89.2466 109.835 89.2359 109.739 89.2145 109.682C89.2002 109.618 89.168 109.586 89.118 109.586C88.8536 109.586 88.6143 109.586 88.3999 109.586C88.1855 109.586 88.0176 109.586 87.8961 109.586C87.7175 109.586 87.5817 109.54 87.4888 109.447C87.3959 109.348 87.3495 109.234 87.3495 109.106C87.3495 108.978 87.3959 108.868 87.4888 108.776C87.5817 108.676 87.7175 108.626 87.8961 108.626C88.0819 108.626 88.2963 108.626 88.5392 108.626C88.7822 108.626 88.993 108.626 89.1716 108.626C89.3788 108.626 89.5611 108.662 89.7183 108.733C89.8755 108.804 89.9969 108.932 90.0827 109.117C90.1684 109.295 90.2113 109.543 90.2113 109.863C90.2113 110.134 90.2113 110.361 90.2113 110.546C90.2113 110.724 90.2006 110.887 90.1791 111.036C90.1649 111.179 90.1327 111.328 90.0827 111.484C90.0327 111.619 89.9433 111.755 89.8147 111.89C89.6861 112.025 89.5146 112.149 89.3002 112.263C89.093 112.37 88.8465 112.455 88.5607 112.519C88.282 112.59 87.9676 112.626 87.6175 112.626C87.0958 112.626 86.6242 112.53 86.2026 112.338C85.7882 112.146 85.4345 111.879 85.1415 111.538C84.8486 111.196 84.6235 110.802 84.4663 110.354C84.3091 109.899 84.2305 109.408 84.2305 108.882C84.2305 108.193 84.3734 107.567 84.6592 107.005C84.945 106.444 85.3452 105.996 85.8597 105.661C86.3813 105.327 86.9958 105.157 87.7032 105.15C87.8961 105.15 88.0998 105.164 88.3142 105.192C88.5285 105.221 88.7465 105.267 88.968 105.331C89.1966 105.395 89.4289 105.473 89.6647 105.565C89.8362 105.637 89.9433 105.736 89.9862 105.864C90.0362 105.985 90.0362 106.106 89.9862 106.227C89.9362 106.34 89.8504 106.426 89.729 106.483C89.6075 106.532 89.4646 106.525 89.3002 106.461Z" fill="#20364B"/>
<path d="M69.825 111.931C69.8736 111.789 69.9187 111.659 69.9604 111.539C70.0021 111.412 70.0437 111.288 70.0854 111.168C70.134 111.041 70.1826 110.907 70.2312 110.765C70.3076 110.539 70.4048 110.352 70.5228 110.204C70.6408 110.048 70.7901 109.932 70.9706 109.854C71.1581 109.769 71.3803 109.727 71.6372 109.727C71.7344 109.727 71.8628 109.727 72.0225 109.727C72.1822 109.727 72.3489 109.727 72.5224 109.727C72.703 109.727 72.8731 109.727 73.0328 109.727C73.1994 109.727 73.3383 109.727 73.4494 109.727C73.5882 109.727 73.6993 109.759 73.7826 109.822C73.8729 109.886 73.9319 109.967 73.9597 110.066C73.9875 110.158 73.9875 110.253 73.9597 110.352C73.9319 110.444 73.8729 110.522 73.7826 110.585C73.6993 110.649 73.5882 110.68 73.4494 110.68C73.3313 110.68 73.2063 110.68 73.0744 110.68C72.9425 110.68 72.8141 110.68 72.6891 110.68C72.571 110.68 72.4634 110.68 72.3662 110.68C72.269 110.68 72.1996 110.68 72.1579 110.68C71.8594 110.68 71.6094 110.627 71.4081 110.522C71.2137 110.409 71.0644 110.257 70.9602 110.066C70.863 109.875 70.8109 109.653 70.804 109.398C70.804 109.144 70.8526 108.872 70.9498 108.583C71.0123 108.392 71.0783 108.198 71.1477 108C71.2241 107.802 71.297 107.601 71.3664 107.396C71.4428 107.184 71.5191 106.968 71.5955 106.749C71.6719 106.523 71.7483 106.29 71.8247 106.05C71.9288 105.753 72.0607 105.531 72.2204 105.383C72.387 105.227 72.5641 105.15 72.7516 105.15C72.939 105.15 73.1161 105.227 73.2827 105.383C73.4563 105.531 73.5986 105.757 73.7097 106.061C73.8139 106.35 73.9215 106.658 74.0326 106.983C74.1437 107.308 74.2548 107.64 74.3659 107.979C74.4769 108.311 74.5846 108.639 74.6887 108.964C74.7998 109.289 74.9039 109.6 75.0012 109.896C75.0984 110.186 75.1886 110.447 75.2719 110.68C75.3136 110.786 75.3587 110.91 75.4073 111.051C75.4559 111.193 75.5045 111.341 75.5531 111.496C75.6087 111.645 75.6608 111.789 75.7094 111.931C75.7718 112.1 75.7718 112.245 75.7094 112.365C75.6538 112.478 75.567 112.556 75.449 112.598C75.331 112.641 75.2129 112.634 75.0949 112.577C74.9769 112.528 74.8901 112.418 74.8345 112.249C74.7859 112.114 74.7338 111.973 74.6783 111.825C74.6297 111.669 74.5811 111.521 74.5325 111.38C74.4839 111.239 74.4388 111.111 74.3971 110.998C74.2929 110.702 74.1749 110.366 74.043 109.992C73.918 109.61 73.7861 109.215 73.6472 108.805C73.5153 108.395 73.3799 107.993 73.2411 107.597C73.1091 107.202 72.9842 106.841 72.8661 106.516C72.8314 106.41 72.8036 106.343 72.7828 106.315C72.7689 106.287 72.7516 106.294 72.7307 106.336C72.7168 106.372 72.6925 106.442 72.6578 106.548C72.5953 106.739 72.5294 106.933 72.46 107.131C72.3905 107.329 72.3211 107.526 72.2517 107.724C72.1822 107.922 72.1128 108.12 72.0434 108.318C71.9739 108.515 71.908 108.71 71.8455 108.9C71.8038 109.02 71.7726 109.133 71.7517 109.239C71.7379 109.338 71.7379 109.427 71.7517 109.504C71.7656 109.575 71.8038 109.631 71.8663 109.674C71.9357 109.709 72.0329 109.727 72.1579 109.727C72.2482 109.727 72.3732 109.727 72.5329 109.727C72.6995 109.727 72.8661 109.727 73.0328 109.727C73.2063 109.727 73.3452 109.727 73.4494 109.727C73.5882 109.727 73.6993 109.759 73.7826 109.822C73.8729 109.886 73.9319 109.967 73.9597 110.066C73.9875 110.158 73.9875 110.253 73.9597 110.352C73.9319 110.444 73.8729 110.522 73.7826 110.585C73.6993 110.649 73.5882 110.68 73.4494 110.68C73.2827 110.68 73.123 110.68 72.9703 110.68C72.8175 110.68 72.6648 110.68 72.512 110.68C72.3662 110.68 72.2204 110.68 72.0746 110.68C71.9288 110.68 71.783 110.68 71.6372 110.68C71.5192 110.68 71.4289 110.695 71.3664 110.723C71.3039 110.744 71.2553 110.786 71.2206 110.85C71.1859 110.907 71.1477 110.984 71.106 111.083C71.0574 111.224 71.0123 111.359 70.9706 111.486C70.929 111.606 70.8838 111.729 70.8352 111.857C70.7936 111.977 70.7485 112.107 70.6999 112.249C70.6443 112.418 70.5575 112.528 70.4395 112.577C70.3215 112.634 70.2034 112.641 70.0854 112.598C69.9673 112.556 69.8771 112.478 69.8146 112.365C69.7591 112.245 69.7625 112.1 69.825 111.931Z" fill="#20364B"/>
<path d="M64.793 112.082C64.793 111.847 64.793 111.634 64.793 111.442C64.793 111.25 64.793 111.076 64.793 110.919C64.793 110.756 64.793 110.606 64.793 110.471C64.793 110.13 64.793 109.782 64.793 109.426C64.793 109.071 64.793 108.715 64.793 108.36C64.793 107.997 64.793 107.649 64.793 107.314C64.793 107.151 64.793 106.991 64.793 106.835C64.793 106.671 64.793 106.497 64.793 106.312C64.793 106.127 64.793 105.917 64.793 105.683C64.793 105.505 64.841 105.373 64.937 105.288C65.0403 105.196 65.1585 105.15 65.2914 105.15C65.4243 105.15 65.5387 105.196 65.6347 105.288C65.7381 105.373 65.7898 105.505 65.7898 105.683C65.7898 105.917 65.7898 106.127 65.7898 106.312C65.7898 106.497 65.7898 106.671 65.7898 106.835C65.7898 106.991 65.7898 107.151 65.7898 107.314C65.7898 107.649 65.7898 107.997 65.7898 108.36C65.7898 108.715 65.7898 109.071 65.7898 109.426C65.7898 109.782 65.7898 110.13 65.7898 110.471C65.7898 110.606 65.7898 110.756 65.7898 110.919C65.7898 111.076 65.7898 111.25 65.7898 111.442C65.7898 111.634 65.7898 111.847 65.7898 112.082C65.7898 112.266 65.7381 112.405 65.6347 112.498C65.5387 112.583 65.4243 112.626 65.2914 112.626C65.1585 112.626 65.0403 112.583 64.937 112.498C64.841 112.405 64.793 112.266 64.793 112.082Z" fill="#20364B"/>
<path d="M60.7831 112.626C60.6027 112.626 60.4014 112.626 60.1793 112.626C59.9641 112.626 59.7282 112.626 59.4714 112.626C59.2146 112.626 58.937 112.626 58.6385 112.626C58.3262 112.626 58.0798 112.6 57.8994 112.55C57.7189 112.492 57.5871 112.394 57.5038 112.257C57.4205 112.12 57.3685 111.921 57.3476 111.661C57.3268 111.401 57.3164 111.065 57.3164 110.654C57.3164 110.213 57.3164 109.78 57.3164 109.353C57.3164 108.927 57.3164 108.516 57.3164 108.118C57.3164 107.714 57.3164 107.338 57.3164 106.991C57.3164 106.84 57.3164 106.699 57.3164 106.569C57.3164 106.432 57.3164 106.291 57.3164 106.146C57.3164 106.002 57.3164 105.85 57.3164 105.691C57.3164 105.511 57.3615 105.377 57.4517 105.29C57.5489 105.196 57.66 105.15 57.7849 105.15C57.9098 105.15 58.0174 105.196 58.1076 105.29C58.2048 105.377 58.2534 105.511 58.2534 105.691C58.2534 105.85 58.2534 105.998 58.2534 106.135C58.2534 106.273 58.2534 106.41 58.2534 106.547C58.2534 106.684 58.2534 106.833 58.2534 106.991C58.2534 107.244 58.2534 107.501 58.2534 107.761C58.2534 108.021 58.2534 108.292 58.2534 108.573C58.2534 108.848 58.2534 109.14 58.2534 109.451C58.2534 109.754 58.2534 110.079 58.2534 110.426C58.2534 110.729 58.2534 110.964 58.2534 111.13C58.2534 111.296 58.2672 111.419 58.295 111.499C58.3228 111.571 58.3783 111.614 58.4616 111.629C58.5448 111.643 58.6698 111.65 58.8363 111.65C59.0029 111.65 59.1625 111.65 59.3152 111.65C59.4679 111.65 59.6206 111.65 59.7733 111.65C59.9329 111.65 60.096 111.65 60.2626 111.65C60.4291 111.65 60.6027 111.65 60.7831 111.65C60.9566 111.65 61.085 111.701 61.1683 111.802C61.2585 111.896 61.3036 112.008 61.3036 112.138C61.3036 112.268 61.2585 112.384 61.1683 112.485C61.085 112.579 60.9566 112.626 60.7831 112.626Z" fill="#20364B"/>
<path d="M47.3973 111.931C47.4459 111.789 47.491 111.659 47.5327 111.539C47.5743 111.412 47.616 111.288 47.6576 111.168C47.7063 111.041 47.7549 110.907 47.8035 110.765C47.8798 110.539 47.977 110.352 48.0951 110.204C48.2131 110.048 48.3624 109.932 48.5429 109.854C48.7304 109.769 48.9526 109.727 49.2094 109.727C49.3067 109.727 49.4351 109.727 49.5948 109.727C49.7545 109.727 49.9211 109.727 50.0947 109.727C50.2752 109.727 50.4453 109.727 50.605 109.727C50.7717 109.727 50.9105 109.727 51.0216 109.727C51.1605 109.727 51.2716 109.759 51.3549 109.822C51.4451 109.886 51.5042 109.967 51.5319 110.066C51.5597 110.158 51.5597 110.253 51.5319 110.352C51.5042 110.444 51.4451 110.522 51.3549 110.585C51.2716 110.649 51.1605 110.68 51.0216 110.68C50.9036 110.68 50.7786 110.68 50.6467 110.68C50.5148 110.68 50.3863 110.68 50.2613 110.68C50.1433 110.68 50.0357 110.68 49.9385 110.68C49.8413 110.68 49.7718 110.68 49.7302 110.68C49.4316 110.68 49.1817 110.627 48.9803 110.522C48.7859 110.409 48.6366 110.257 48.5325 110.066C48.4353 109.875 48.3832 109.653 48.3763 109.398C48.3763 109.144 48.4249 108.872 48.5221 108.583C48.5846 108.392 48.6505 108.198 48.72 108C48.7963 107.802 48.8692 107.601 48.9387 107.396C49.015 107.184 49.0914 106.968 49.1678 106.749C49.2442 106.523 49.3205 106.29 49.3969 106.05C49.5011 105.753 49.633 105.531 49.7927 105.383C49.9593 105.227 50.1364 105.15 50.3238 105.15C50.5113 105.15 50.6883 105.227 50.855 105.383C51.0286 105.531 51.1709 105.757 51.282 106.061C51.3861 106.35 51.4938 106.658 51.6048 106.983C51.7159 107.308 51.827 107.64 51.9381 107.979C52.0492 108.311 52.1568 108.639 52.261 108.964C52.3721 109.289 52.4762 109.6 52.5734 109.896C52.6706 110.186 52.7609 110.447 52.8442 110.68C52.8859 110.786 52.931 110.91 52.9796 111.051C53.0282 111.193 53.0768 111.341 53.1254 111.496C53.1809 111.645 53.233 111.789 53.2816 111.931C53.3441 112.1 53.3441 112.245 53.2816 112.365C53.2261 112.478 53.1393 112.556 53.0213 112.598C52.9032 112.641 52.7852 112.634 52.6672 112.577C52.5491 112.528 52.4623 112.418 52.4068 112.249C52.3582 112.114 52.3061 111.973 52.2506 111.825C52.202 111.669 52.1534 111.521 52.1048 111.38C52.0561 111.239 52.011 111.111 51.9694 110.998C51.8652 110.702 51.7472 110.366 51.6153 109.992C51.4903 109.61 51.3584 109.215 51.2195 108.805C51.0876 108.395 50.9522 107.993 50.8133 107.597C50.6814 107.202 50.5564 106.841 50.4384 106.516C50.4037 106.41 50.3759 106.343 50.3551 106.315C50.3412 106.287 50.3238 106.294 50.303 106.336C50.2891 106.372 50.2648 106.442 50.2301 106.548C50.1676 106.739 50.1016 106.933 50.0322 107.131C49.9628 107.329 49.8934 107.526 49.8239 107.724C49.7545 107.922 49.6851 108.12 49.6156 108.318C49.5462 108.515 49.4802 108.71 49.4177 108.9C49.3761 109.02 49.3448 109.133 49.324 109.239C49.3101 109.338 49.3101 109.427 49.324 109.504C49.3379 109.575 49.3761 109.631 49.4386 109.674C49.508 109.709 49.6052 109.727 49.7302 109.727C49.8204 109.727 49.9454 109.727 50.1051 109.727C50.2718 109.727 50.4384 109.727 50.605 109.727C50.7786 109.727 50.9175 109.727 51.0216 109.727C51.1605 109.727 51.2716 109.759 51.3549 109.822C51.4451 109.886 51.5042 109.967 51.5319 110.066C51.5597 110.158 51.5597 110.253 51.5319 110.352C51.5042 110.444 51.4451 110.522 51.3549 110.585C51.2716 110.649 51.1605 110.68 51.0216 110.68C50.855 110.68 50.6953 110.68 50.5425 110.68C50.3898 110.68 50.237 110.68 50.0843 110.68C49.9385 110.68 49.7927 110.68 49.6469 110.68C49.5011 110.68 49.3553 110.68 49.2094 110.68C49.0914 110.68 49.0012 110.695 48.9387 110.723C48.8762 110.744 48.8276 110.786 48.7929 110.85C48.7581 110.907 48.72 110.984 48.6783 111.083C48.6297 111.224 48.5846 111.359 48.5429 111.486C48.5012 111.606 48.4561 111.729 48.4075 111.857C48.3659 111.977 48.3207 112.107 48.2721 112.249C48.2166 112.418 48.1298 112.528 48.0118 112.577C47.8937 112.634 47.7757 112.641 47.6576 112.598C47.5396 112.556 47.4494 112.478 47.3869 112.365C47.3313 112.245 47.3348 112.1 47.3973 111.931Z" fill="#20364B"/>
<path d="M43.7922 106.123C43.6815 106.123 43.5006 106.123 43.2495 106.123C43.0058 106.123 42.7216 106.123 42.3967 106.123C42.0792 106.123 41.758 106.123 41.4331 106.123C41.1156 106.123 40.8203 106.123 40.5471 106.123C40.2812 106.123 40.0782 106.123 39.9379 106.123C39.7902 106.123 39.6684 106.091 39.5724 106.026C39.4838 105.961 39.4247 105.882 39.3952 105.788C39.3657 105.687 39.3657 105.589 39.3952 105.496C39.4247 105.395 39.4838 105.312 39.5724 105.247C39.6684 105.182 39.7902 105.15 39.9379 105.15C40.1668 105.15 40.3957 105.171 40.6246 105.214C40.8609 105.25 41.0824 105.315 41.2891 105.409C41.4959 105.496 41.6805 105.611 41.8429 105.755C42.0054 105.9 42.1309 106.073 42.2195 106.275C42.3155 106.477 42.3635 106.715 42.3635 106.989C42.3635 107.277 42.3635 107.595 42.3635 107.941C42.3635 108.28 42.3635 108.615 42.3635 108.947C42.3635 109.272 42.3635 109.567 42.3635 109.834C42.3635 110.101 42.3635 110.303 42.3635 110.44C42.3635 110.613 42.3635 110.797 42.3635 110.992C42.3635 111.187 42.3635 111.378 42.3635 111.565C42.3635 111.746 42.3635 111.915 42.3635 112.074C42.3635 112.254 42.3118 112.391 42.2084 112.485C42.1124 112.579 41.998 112.626 41.8651 112.626C41.7322 112.626 41.614 112.579 41.5106 112.485C41.4147 112.391 41.3667 112.254 41.3667 112.074C41.3667 111.915 41.3667 111.746 41.3667 111.565C41.3667 111.378 41.3667 111.187 41.3667 110.992C41.3667 110.797 41.3667 110.613 41.3667 110.44C41.3667 110.303 41.3667 110.094 41.3667 109.813C41.3667 109.524 41.3667 109.207 41.3667 108.86C41.3667 108.507 41.3667 108.164 41.3667 107.833C41.3667 107.501 41.3667 107.22 41.3667 106.989C41.3667 106.765 41.326 106.596 41.2448 106.48C41.1636 106.358 41.0528 106.271 40.9126 106.221C40.7796 106.17 40.6283 106.141 40.4585 106.134C40.2886 106.127 40.1151 106.123 39.9379 106.123C39.7902 106.123 39.6684 106.091 39.5724 106.026C39.4838 105.961 39.4247 105.882 39.3952 105.788C39.3657 105.687 39.3657 105.589 39.3952 105.496C39.4247 105.395 39.4838 105.312 39.5724 105.247C39.6684 105.182 39.7902 105.15 39.9379 105.15C40.1668 105.15 40.4326 105.15 40.7353 105.15C41.0455 105.15 41.3593 105.15 41.6768 105.15C42.0017 105.15 42.3118 105.15 42.6071 105.15C42.9025 105.15 43.1535 105.15 43.3603 105.15C43.5744 105.15 43.7184 105.15 43.7922 105.15C43.9842 105.15 44.1245 105.2 44.2131 105.301C44.3091 105.395 44.3571 105.507 44.3571 105.636C44.3571 105.766 44.3091 105.882 44.2131 105.983C44.1245 106.076 43.9842 106.123 43.7922 106.123Z" fill="#20364B"/>
<path d="M30.452 111.931C30.5006 111.789 30.5457 111.659 30.5874 111.539C30.629 111.412 30.6707 111.288 30.7123 111.168C30.7609 111.041 30.8095 110.907 30.8581 110.765C30.9345 110.539 31.0317 110.352 31.1498 110.204C31.2678 110.048 31.4171 109.932 31.5976 109.854C31.7851 109.769 32.0072 109.727 32.2641 109.727C32.3613 109.727 32.4898 109.727 32.6495 109.727C32.8092 109.727 32.9758 109.727 33.1494 109.727C33.3299 109.727 33.5 109.727 33.6597 109.727C33.8264 109.727 33.9652 109.727 34.0763 109.727C34.2152 109.727 34.3263 109.759 34.4096 109.822C34.4998 109.886 34.5589 109.967 34.5866 110.066C34.6144 110.158 34.6144 110.253 34.5866 110.352C34.5589 110.444 34.4998 110.522 34.4096 110.585C34.3263 110.649 34.2152 110.68 34.0763 110.68C33.9583 110.68 33.8333 110.68 33.7014 110.68C33.5695 110.68 33.441 110.68 33.316 110.68C33.198 110.68 33.0904 110.68 32.9932 110.68C32.896 110.68 32.8265 110.68 32.7849 110.68C32.4863 110.68 32.2364 110.627 32.035 110.522C31.8406 110.409 31.6913 110.257 31.5872 110.066C31.49 109.875 31.4379 109.653 31.431 109.398C31.431 109.144 31.4796 108.872 31.5768 108.583C31.6392 108.392 31.7052 108.198 31.7746 108C31.851 107.802 31.9239 107.601 31.9934 107.396C32.0697 107.184 32.1461 106.968 32.2225 106.749C32.2989 106.523 32.3752 106.29 32.4516 106.05C32.5557 105.753 32.6877 105.531 32.8474 105.383C33.014 105.227 33.191 105.15 33.3785 105.15C33.566 105.15 33.743 105.227 33.9097 105.383C34.0832 105.531 34.2256 105.757 34.3367 106.061C34.4408 106.35 34.5484 106.658 34.6595 106.983C34.7706 107.308 34.8817 107.64 34.9928 107.979C35.1039 108.311 35.2115 108.639 35.3157 108.964C35.4268 109.289 35.5309 109.6 35.6281 109.896C35.7253 110.186 35.8156 110.447 35.8989 110.68C35.9405 110.786 35.9857 110.91 36.0343 111.051C36.0829 111.193 36.1315 111.341 36.1801 111.496C36.2356 111.645 36.2877 111.789 36.3363 111.931C36.3988 112.1 36.3988 112.245 36.3363 112.365C36.2808 112.478 36.194 112.556 36.0759 112.598C35.9579 112.641 35.8399 112.634 35.7218 112.577C35.6038 112.528 35.517 112.418 35.4615 112.249C35.4129 112.114 35.3608 111.973 35.3052 111.825C35.2566 111.669 35.208 111.521 35.1594 111.38C35.1108 111.239 35.0657 111.111 35.024 110.998C34.9199 110.702 34.8019 110.366 34.6699 109.992C34.545 109.61 34.413 109.215 34.2742 108.805C34.1423 108.395 34.0069 107.993 33.868 107.597C33.7361 107.202 33.6111 106.841 33.4931 106.516C33.4584 106.41 33.4306 106.343 33.4098 106.315C33.3959 106.287 33.3785 106.294 33.3577 106.336C33.3438 106.372 33.3195 106.442 33.2848 106.548C33.2223 106.739 33.1563 106.933 33.0869 107.131C33.0175 107.329 32.948 107.526 32.8786 107.724C32.8092 107.922 32.7397 108.12 32.6703 108.318C32.6009 108.515 32.5349 108.71 32.4724 108.9C32.4308 109.02 32.3995 109.133 32.3787 109.239C32.3648 109.338 32.3648 109.427 32.3787 109.504C32.3926 109.575 32.4308 109.631 32.4933 109.674C32.5627 109.709 32.6599 109.727 32.7849 109.727C32.8751 109.727 33.0001 109.727 33.1598 109.727C33.3264 109.727 33.4931 109.727 33.6597 109.727C33.8333 109.727 33.9722 109.727 34.0763 109.727C34.2152 109.727 34.3263 109.759 34.4096 109.822C34.4998 109.886 34.5589 109.967 34.5866 110.066C34.6144 110.158 34.6144 110.253 34.5866 110.352C34.5589 110.444 34.4998 110.522 34.4096 110.585C34.3263 110.649 34.2152 110.68 34.0763 110.68C33.9097 110.68 33.75 110.68 33.5972 110.68C33.4445 110.68 33.2917 110.68 33.139 110.68C32.9932 110.68 32.8474 110.68 32.7016 110.68C32.5557 110.68 32.4099 110.68 32.2641 110.68C32.1461 110.68 32.0558 110.695 31.9934 110.723C31.9309 110.744 31.8823 110.786 31.8475 110.85C31.8128 110.907 31.7746 110.984 31.733 111.083C31.6844 111.224 31.6392 111.359 31.5976 111.486C31.5559 111.606 31.5108 111.729 31.4622 111.857C31.4205 111.977 31.3754 112.107 31.3268 112.249C31.2713 112.418 31.1845 112.528 31.0664 112.577C30.9484 112.634 30.8304 112.641 30.7123 112.598C30.5943 112.556 30.504 112.478 30.4416 112.365C30.386 112.245 30.3895 112.1 30.452 111.931Z" fill="#20364B"/>
<path d="M20.9336 112.092C20.9336 111.936 20.9336 111.783 20.9336 111.634C20.9336 111.477 20.9336 111.328 20.9336 111.186C20.9336 111.036 20.9336 110.898 20.9336 110.77C20.9336 110.642 20.9336 110.489 20.9336 110.311C20.9336 110.134 20.9336 109.942 20.9336 109.735C20.9336 109.529 20.9336 109.319 20.9336 109.106C20.9336 108.893 20.9336 108.683 20.9336 108.477C20.9336 108.271 20.9336 108.082 20.9336 107.912C20.9336 107.713 20.9336 107.528 20.9336 107.357C20.9336 107.179 20.9336 107.012 20.9336 106.856C20.9336 106.692 20.9336 106.529 20.9336 106.365C20.9336 106.195 20.9336 106.013 20.9336 105.821C20.9336 105.672 20.9544 105.548 20.9959 105.448C21.0374 105.341 21.0928 105.263 21.162 105.213C21.2382 105.164 21.3212 105.146 21.4112 105.16C21.5081 105.167 21.6085 105.206 21.7123 105.277C21.8162 105.349 21.9166 105.455 22.0135 105.597C22.1173 105.74 22.2142 105.878 22.3042 106.013C22.4011 106.141 22.4911 106.269 22.5742 106.397C22.6642 106.525 22.7507 106.65 22.8338 106.771C22.9168 106.891 22.9999 107.012 23.083 107.133C23.2076 107.318 23.3564 107.535 23.5294 107.784C23.7025 108.025 23.8825 108.281 24.0694 108.552C24.2632 108.822 24.4501 109.088 24.6301 109.351C24.8101 109.615 24.9727 109.856 25.1181 110.077C25.2565 110.283 25.3984 110.475 25.5438 110.653C25.6961 110.83 25.838 110.997 25.9695 111.154C26.1011 111.31 26.2084 111.46 26.2914 111.602C26.3745 111.744 26.416 111.883 26.416 112.018C26.416 112.16 26.3918 112.277 26.3433 112.37C26.3018 112.455 26.243 112.515 26.1668 112.551C26.0976 112.594 26.0145 112.604 25.9176 112.583C25.8276 112.569 25.7307 112.522 25.6269 112.444C25.523 112.366 25.4227 112.259 25.3258 112.124C25.2219 111.982 25.17 111.858 25.17 111.751C25.1769 111.637 25.2046 111.524 25.2531 111.41C25.3015 111.296 25.35 111.161 25.3984 111.004C25.4538 110.841 25.4815 110.638 25.4815 110.397C25.4815 110.212 25.4815 109.998 25.4815 109.757C25.4815 109.515 25.4815 109.266 25.4815 109.01C25.4815 108.747 25.4815 108.491 25.4815 108.242C25.4815 107.993 25.4815 107.769 25.4815 107.57C25.4815 107.364 25.4815 107.204 25.4815 107.091C25.4815 106.934 25.4815 106.781 25.4815 106.632C25.4815 106.475 25.4815 106.319 25.4815 106.163C25.4815 106.006 25.4815 105.85 25.4815 105.693C25.4815 105.509 25.5265 105.373 25.6165 105.288C25.7134 105.196 25.8242 105.15 25.9488 105.15C26.0734 105.15 26.1807 105.196 26.2707 105.288C26.3676 105.373 26.416 105.509 26.416 105.693C26.416 105.85 26.416 106.003 26.416 106.152C26.416 106.294 26.416 106.447 26.416 106.611C26.416 106.767 26.416 106.952 26.416 107.165C26.416 107.378 26.416 107.638 26.416 107.944C26.416 108.242 26.416 108.555 26.416 108.882C26.416 109.202 26.416 109.508 26.416 109.799C26.416 110.084 26.416 110.318 26.416 110.503C26.416 110.603 26.416 110.702 26.416 110.802C26.416 110.901 26.416 111.001 26.416 111.1C26.416 111.2 26.416 111.3 26.416 111.399C26.416 111.499 26.416 111.602 26.416 111.708C26.416 111.808 26.416 111.911 26.416 112.018C26.416 112.16 26.3918 112.277 26.3433 112.37C26.3018 112.455 26.243 112.515 26.1668 112.551C26.0976 112.594 26.0145 112.604 25.9176 112.583C25.8276 112.569 25.7307 112.522 25.6269 112.444C25.523 112.366 25.4227 112.259 25.3258 112.124C25.2427 112.011 25.17 111.907 25.1077 111.815C25.0454 111.723 24.9866 111.637 24.9312 111.559C24.8758 111.474 24.8204 111.392 24.7651 111.314C24.7166 111.236 24.6647 111.154 24.6093 111.068C24.5539 110.983 24.4916 110.887 24.4224 110.781C24.3117 110.617 24.194 110.439 24.0694 110.247C23.9448 110.055 23.8133 109.86 23.6748 109.661C23.5364 109.462 23.3979 109.266 23.2595 109.074C23.1279 108.875 22.9999 108.687 22.8753 108.509C22.7507 108.324 22.6365 108.153 22.5326 107.997C22.4565 107.883 22.3873 107.784 22.325 107.698C22.2696 107.613 22.2211 107.538 22.1796 107.474C22.1381 107.41 22.1 107.357 22.0654 107.314C22.0377 107.265 22.01 107.218 21.9823 107.176C21.9546 107.14 21.9339 107.112 21.92 107.091C21.9062 107.069 21.8923 107.055 21.8785 107.048C21.8716 107.041 21.8681 107.044 21.8681 107.059C21.8681 107.073 21.8681 107.094 21.8681 107.122C21.8681 107.151 21.8681 107.19 21.8681 107.24C21.8681 107.29 21.8681 107.343 21.8681 107.4C21.8681 107.45 21.8681 107.506 21.8681 107.57C21.8681 107.627 21.8681 107.691 21.8681 107.762C21.8681 107.826 21.8681 107.901 21.8681 107.986C21.8681 108.072 21.8681 108.168 21.8681 108.274C21.8681 108.48 21.8681 108.683 21.8681 108.882C21.8681 109.074 21.8681 109.27 21.8681 109.469C21.8681 109.668 21.8681 109.874 21.8681 110.087C21.8681 110.301 21.8681 110.528 21.8681 110.77C21.8681 110.926 21.8681 111.076 21.8681 111.218C21.8681 111.36 21.8681 111.502 21.8681 111.644C21.8681 111.779 21.8681 111.929 21.8681 112.092C21.8681 112.27 21.8196 112.405 21.7227 112.498C21.6327 112.583 21.5254 112.626 21.4008 112.626C21.2762 112.626 21.1655 112.583 21.0686 112.498C20.9786 112.405 20.9336 112.27 20.9336 112.092Z" fill="#20364B"/>
</svg>
