<svg width="47" height="45" viewBox="0 0 47 45" fill="none" xmlns="http://www.w3.org/2000/svg">
<path d="M28.2806 30.3487C27.6601 30.3487 27.2046 30.137 26.9141 29.7134C26.6369 29.2899 26.4982 28.7142 26.4982 27.9862C26.4982 27.1789 26.6633 26.2259 26.9933 25.1274C27.3234 24.0288 27.7855 22.8443 28.3796 21.5737C28.9738 20.3031 29.6801 18.9994 30.4987 17.6626C31.3305 16.3126 32.2415 14.9824 33.2317 13.6721C33.0205 13.7383 32.7762 13.8309 32.4989 13.9501C32.2217 14.056 31.9708 14.1751 31.7464 14.3074C31.0994 14.6913 30.3865 15.181 29.6075 15.7766C28.8285 16.3589 28.0232 17.0074 27.1914 17.7222C26.3728 18.4236 25.5674 19.1516 24.7752 19.906C23.9831 20.6604 23.2437 21.395 22.5572 22.1097C21.8706 22.8112 21.2765 23.4597 20.7748 24.0553C20.2731 24.6377 19.8968 25.1207 19.6459 25.5046C19.5535 25.7163 19.4677 25.9149 19.3885 26.1002C19.3224 26.2855 19.2564 26.4575 19.1904 26.6163C19.164 26.709 19.0914 26.795 18.9726 26.8744C18.8669 26.9538 18.7481 26.9936 18.6161 26.9936C18.3256 26.9936 18.1804 26.7884 18.1804 26.3781C18.1804 26.2458 18.1936 26.0935 18.22 25.9215C18.2596 25.7494 18.319 25.5575 18.3982 25.3457C18.4643 25.1869 18.6359 24.8296 18.9132 24.2737C19.1904 23.7178 19.5337 23.056 19.943 22.2884C20.3655 21.5075 20.821 20.6472 21.3095 19.7075C21.798 18.7678 22.2799 17.8214 22.7552 16.8685C23.0985 16.1935 23.3889 15.5185 23.6266 14.8435C23.8774 14.1685 24.0029 13.5596 24.0029 13.017C24.0029 12.4743 23.8312 12.0309 23.488 11.6868C23.1579 11.3427 22.577 11.1706 21.7452 11.1706C20.5173 11.1706 19.2432 11.2964 17.9229 11.5478C16.6026 11.7993 15.2824 12.1501 13.9621 12.6001C12.6418 13.0501 11.3677 13.5729 10.1398 14.1685C8.91196 14.764 7.76991 15.406 6.71368 16.0942C5.65744 16.7824 4.73324 17.4905 3.94107 18.2185C3.14889 18.9464 2.52836 19.6744 2.07946 20.4023C1.64376 21.117 1.42591 21.7987 1.42591 22.4472C1.42591 23.0163 1.56454 23.4001 1.8418 23.5987C2.11907 23.784 2.46894 23.8766 2.89144 23.8766C3.1687 23.8766 3.45256 23.8435 3.74302 23.7774C4.03349 23.7112 4.30415 23.6516 4.555 23.5987C4.58141 23.5854 4.62762 23.5788 4.69363 23.5788C4.91808 23.5788 5.03031 23.6649 5.03031 23.8369C5.03031 23.956 4.94449 24.0421 4.77285 24.095C4.46918 24.1877 4.13911 24.2671 3.78263 24.3332C3.43936 24.3994 3.08948 24.4325 2.733 24.4325C2.2709 24.4325 1.8286 24.3663 1.40611 24.234C0.983616 24.1016 0.640341 23.8766 0.376283 23.559C0.125428 23.2413 0 22.8178 0 22.2884C0 21.6001 0.244254 20.8788 0.732761 20.1244C1.22127 19.37 1.90122 18.6155 2.77261 17.8611C3.644 17.1067 4.65402 16.3788 5.80268 15.6773C6.95133 14.9626 8.1858 14.3008 9.50609 13.692C10.8396 13.0831 12.2127 12.5471 13.6254 12.0839C15.0381 11.6206 16.4442 11.2633 17.8437 11.0118C19.2432 10.7471 20.5767 10.6147 21.8442 10.6147C23.0985 10.6147 23.9765 10.8331 24.4782 11.2699C24.9799 11.7067 25.2307 12.2758 25.2307 12.9773C25.2307 13.5464 25.1053 14.1751 24.8545 14.8633C24.6036 15.5516 24.2933 16.2596 23.9237 16.9876C23.8048 17.2126 23.62 17.5567 23.3691 18.02C23.1315 18.4832 22.8476 19.0258 22.5175 19.6479C22.2007 20.2567 21.864 20.9053 21.5075 21.5935C21.1643 22.2685 20.8342 22.9369 20.5173 23.5987C21.151 22.8178 21.897 21.9773 22.7552 21.0773C23.6134 20.1641 24.531 19.2442 25.508 18.3177C26.4982 17.3913 27.5016 16.5177 28.5183 15.6971C29.5481 14.8633 30.5449 14.142 31.5087 13.5332C31.9048 13.2817 32.2943 13.0501 32.6772 12.8383C33.0601 12.6265 33.4363 12.4545 33.806 12.3221C33.9117 12.2824 34.0437 12.2956 34.2021 12.3618C34.3738 12.4148 34.5322 12.4942 34.6774 12.6001C34.8227 12.7059 34.9217 12.8118 34.9745 12.9177C35.0009 13.0633 34.9613 13.2883 34.8557 13.5927C34.75 13.8839 34.5586 14.1817 34.2813 14.4861C33.5552 15.2273 32.862 16.0744 32.2019 17.0273C31.5417 17.967 30.9344 18.953 30.3799 19.9854C29.8254 21.0178 29.3434 22.0369 28.9342 23.0428C28.5249 24.0487 28.2014 24.995 27.9637 25.8818C27.7393 26.7553 27.6271 27.5097 27.6271 28.145C27.6271 29.1245 27.9307 29.6142 28.5381 29.6142C28.8549 29.6142 29.2312 29.5215 29.6669 29.3362C30.1026 29.1509 30.5449 28.9193 30.9938 28.6414C31.4559 28.3767 31.852 28.1186 32.1821 27.8671C32.2349 27.8406 32.2679 27.8274 32.2811 27.8274C32.3339 27.8274 32.3669 27.8472 32.3801 27.8869C32.4065 27.9399 32.4263 27.9796 32.4395 28.0061C32.4395 28.0458 32.4329 28.0921 32.4197 28.145C32.4065 28.198 32.3735 28.2443 32.3207 28.284C32.2415 28.3634 32.0765 28.509 31.8256 28.7208C31.5747 28.9458 31.2579 29.184 30.875 29.4355C30.5053 29.687 30.096 29.8987 29.6471 30.0708C29.1982 30.2561 28.7427 30.3487 28.2806 30.3487Z" fill="#FFF9F1"/>
<path d="M24.322 44.9995C36.7304 44.9995 46.7894 34.926 46.7894 22.4998C46.7894 10.0735 36.7304 3.8147e-05 24.322 3.8147e-05C18.3022 3.8147e-05 12.8355 2.37121 8.80189 6.23153C9.25796 6.26439 9.70831 6.3177 10.1519 6.39119C13.9297 3.05583 18.8898 1.03214 24.322 1.03214C36.1612 1.03214 45.7588 10.6435 45.7588 22.4998C45.7588 34.356 36.1612 43.9674 24.322 43.9674C17.4564 43.9674 11.3448 40.7351 7.42143 35.7072C6.96446 35.6978 6.38881 35.7106 5.97656 35.7106C10.0546 41.3921 16.8018 44.9995 24.322 44.9995Z" fill="#FFF9F1"/>
<path d="M38.7238 31.7078C38.7238 31.776 38.7238 31.8377 38.7238 31.8931C38.7238 31.9485 38.7238 32.0102 38.7238 32.0784C38.7238 32.1551 38.7238 32.2509 38.7238 32.3659C38.7238 32.4788 38.7238 32.5991 38.7238 32.7269C38.7238 32.8546 38.7238 32.9792 38.7238 33.1006C38.7238 33.222 38.7238 33.3296 38.7238 33.4233C38.7238 33.5148 38.7238 33.5819 38.7238 33.6245C38.7238 33.6671 38.7136 33.7022 38.6932 33.7299C38.6728 33.7555 38.6467 33.7725 38.615 33.781C38.5856 33.7896 38.555 33.7896 38.5233 33.781C38.4939 33.7725 38.4689 33.7555 38.4485 33.7299C38.4282 33.7022 38.418 33.6671 38.418 33.6245C38.418 33.5777 38.418 33.5202 38.418 33.452C38.418 33.3839 38.418 33.3146 38.418 33.2444C38.418 33.172 38.418 33.1059 38.418 33.0463C38.418 32.9846 38.418 32.9388 38.418 32.9089C38.418 32.8131 38.4395 32.7333 38.4825 32.6694C38.5278 32.6055 38.5856 32.5576 38.6558 32.5256C38.726 32.4937 38.7996 32.4777 38.8767 32.4777C39.0556 32.4777 39.2164 32.4777 39.3591 32.4777C39.5018 32.4777 39.6332 32.4777 39.7533 32.4777C39.794 32.4777 39.8257 32.4734 39.8484 32.4649C39.871 32.4543 39.8858 32.4383 39.8926 32.417C39.9016 32.3957 39.9061 32.368 39.9061 32.3339C39.9061 32.3105 39.9061 32.2754 39.9061 32.2285C39.9061 32.1796 39.9061 32.1252 39.9061 32.0656C39.9061 32.006 39.9061 31.9453 39.9061 31.8835C39.9061 31.8196 39.9061 31.7611 39.9061 31.7078C39.9061 31.6652 39.9163 31.6312 39.9367 31.6056C39.9571 31.5779 39.982 31.5598 40.0115 31.5513C40.0432 31.5428 40.0738 31.5428 40.1032 31.5513C40.1349 31.5598 40.161 31.5779 40.1814 31.6056C40.2017 31.6312 40.2119 31.6652 40.2119 31.7078C40.2119 31.7419 40.2119 31.7994 40.2119 31.8803C40.2119 31.9613 40.2119 32.055 40.2119 32.1614C40.2119 32.2679 40.2119 32.3787 40.2119 32.4937C40.2119 32.6065 40.2119 32.7152 40.2119 32.8195C40.2119 32.9239 40.2119 33.0144 40.2119 33.091C40.2119 33.1677 40.2119 33.2209 40.2119 33.2508C40.2119 33.2955 40.2119 33.3381 40.2119 33.3785C40.2119 33.4169 40.2119 33.4563 40.2119 33.4967C40.2119 33.5351 40.2119 33.5777 40.2119 33.6245C40.2119 33.6777 40.1961 33.7182 40.1644 33.7459C40.1349 33.7736 40.0998 33.7874 40.059 33.7874C40.0183 33.7874 39.982 33.7736 39.9503 33.7459C39.9209 33.7182 39.9061 33.6777 39.9061 33.6245C39.9061 33.5819 39.9061 33.5404 39.9061 33.4999C39.9061 33.4573 39.9061 33.4158 39.9061 33.3753C39.9061 33.3327 39.9061 33.2912 39.9061 33.2508C39.9061 33.2295 39.9061 33.1826 39.9061 33.1102C39.9061 33.0378 39.9061 32.9494 39.9061 32.8451C39.9061 32.7407 39.9061 32.63 39.9061 32.5128C39.9061 32.3957 39.9061 32.2828 39.9061 32.1742C39.9061 32.0635 39.9061 31.9666 39.9061 31.8835C39.9061 31.8005 39.9061 31.7419 39.9061 31.7078C39.9061 31.6652 39.9163 31.6312 39.9367 31.6056C39.9571 31.5779 39.982 31.5598 40.0115 31.5513C40.0432 31.5428 40.0738 31.5428 40.1032 31.5513C40.1349 31.5598 40.161 31.5779 40.1814 31.6056C40.2017 31.6312 40.2119 31.6652 40.2119 31.7078C40.2119 31.7611 40.2119 31.8175 40.2119 31.8771C40.2119 31.9346 40.2119 31.9921 40.2119 32.0496C40.2119 32.1071 40.2119 32.1604 40.2119 32.2094C40.2119 32.2583 40.2119 32.2999 40.2119 32.3339C40.2119 32.4191 40.1949 32.4947 40.161 32.5608C40.127 32.6246 40.076 32.6747 40.0081 32.7109C39.9401 32.7471 39.8552 32.7652 39.7533 32.7652C39.5743 32.7652 39.4135 32.7652 39.2708 32.7652C39.1281 32.7652 38.9967 32.7652 38.8767 32.7652C38.8472 32.7652 38.8212 32.7695 38.7985 32.778C38.7759 32.7865 38.7577 32.8014 38.7441 32.8227C38.7306 32.844 38.7238 32.8727 38.7238 32.9089C38.7238 32.9537 38.7238 33.008 38.7238 33.0719C38.7238 33.1336 38.7238 33.1986 38.7238 33.2667C38.7238 33.3349 38.7238 33.4009 38.7238 33.4648C38.7238 33.5265 38.7238 33.5798 38.7238 33.6245C38.7238 33.6671 38.7136 33.7022 38.6932 33.7299C38.6728 33.7555 38.6467 33.7725 38.615 33.781C38.5856 33.7896 38.555 33.7896 38.5233 33.781C38.4939 33.7725 38.4689 33.7555 38.4485 33.7299C38.4282 33.7022 38.418 33.6671 38.418 33.6245C38.418 33.5904 38.418 33.5351 38.418 33.4584C38.418 33.3817 38.418 33.2923 38.418 33.1901C38.418 33.0878 38.418 32.9814 38.418 32.8706C38.418 32.7599 38.418 32.6523 38.418 32.548C38.418 32.4436 38.418 32.3499 38.418 32.2669C38.418 32.1838 38.418 32.121 38.418 32.0784C38.418 32.0379 38.418 31.9975 38.418 31.957C38.418 31.9144 38.418 31.8729 38.418 31.8324C38.418 31.792 38.418 31.7504 38.418 31.7078C38.418 31.6546 38.4327 31.6141 38.4621 31.5864C38.4938 31.5588 38.5301 31.5449 38.5709 31.5449C38.6116 31.5449 38.6467 31.5588 38.6762 31.5864C38.7079 31.6141 38.7238 31.6546 38.7238 31.7078Z" fill="#FFF9F1"/>
<path d="M37.3007 33.6134C37.21 33.6714 37.1119 33.7154 37.0064 33.7455C36.901 33.7734 36.8008 33.7873 36.7058 33.7873C36.5286 33.7895 36.3662 33.7455 36.2185 33.6552C36.0708 33.565 35.9527 33.4362 35.8641 33.2686C35.7776 33.0989 35.7344 32.8981 35.7344 32.6661C35.7344 32.4922 35.7597 32.3364 35.8103 32.199C35.8631 32.0593 35.9348 31.9412 36.0255 31.8446C36.1162 31.7458 36.2206 31.6716 36.3388 31.6222C36.459 31.5707 36.5856 31.5449 36.7185 31.5449C36.8113 31.5449 36.9083 31.5578 37.0096 31.5836C37.113 31.6094 37.2089 31.6512 37.2975 31.7092C37.3418 31.7393 37.3672 31.7737 37.3735 31.8123C37.3819 31.851 37.3756 31.8864 37.3545 31.9187C37.3355 31.9509 37.307 31.9724 37.2691 31.9831C37.2311 31.9938 37.19 31.9842 37.1457 31.9541C37.0803 31.9111 37.0096 31.8811 36.9337 31.8639C36.8577 31.8446 36.786 31.8349 36.7185 31.8349C36.5856 31.8349 36.4664 31.8682 36.3609 31.9348C36.2554 32.0014 36.1721 32.0969 36.1109 32.2215C36.0498 32.3461 36.0192 32.4943 36.0192 32.6661C36.0192 32.795 36.036 32.911 36.0698 33.0141C36.1035 33.1172 36.151 33.2053 36.2122 33.2783C36.2755 33.3492 36.3483 33.4039 36.4305 33.4426C36.5149 33.4791 36.6067 33.4974 36.7058 33.4974C36.7733 33.4974 36.8461 33.4877 36.9242 33.4684C37.0043 33.4469 37.0771 33.4136 37.1425 33.3685C37.1889 33.3384 37.2311 33.3288 37.2691 33.3395C37.307 33.3481 37.3355 33.3685 37.3545 33.4007C37.3756 33.4329 37.383 33.4695 37.3767 33.5103C37.3703 33.5489 37.345 33.5833 37.3007 33.6134Z" fill="#FFF9F1"/>
<path d="M34.2344 33.6243C34.2344 33.5539 34.2344 33.4899 34.2344 33.4323C34.2344 33.3747 34.2344 33.3225 34.2344 33.2756C34.2344 33.2265 34.2344 33.1817 34.2344 33.1412C34.2344 33.0389 34.2344 32.9344 34.2344 32.8277C34.2344 32.7211 34.2344 32.6145 34.2344 32.5078C34.2344 32.3991 34.2344 32.2946 34.2344 32.1943C34.2344 32.1453 34.2344 32.0973 34.2344 32.0504C34.2344 32.0013 34.2344 31.9491 34.2344 31.8936C34.2344 31.8382 34.2344 31.7752 34.2344 31.7049C34.2344 31.6516 34.2488 31.6121 34.2776 31.5865C34.3086 31.5588 34.344 31.5449 34.3839 31.5449C34.4237 31.5449 34.4581 31.5588 34.4869 31.5865C34.5179 31.6121 34.5334 31.6516 34.5334 31.7049C34.5334 31.7752 34.5334 31.8382 34.5334 31.8936C34.5334 31.9491 34.5334 32.0013 34.5334 32.0504C34.5334 32.0973 34.5334 32.1453 34.5334 32.1943C34.5334 32.2946 34.5334 32.3991 34.5334 32.5078C34.5334 32.6145 34.5334 32.7211 34.5334 32.8277C34.5334 32.9344 34.5334 33.0389 34.5334 33.1412C34.5334 33.1817 34.5334 33.2265 34.5334 33.2756C34.5334 33.3225 34.5334 33.3747 34.5334 33.4323C34.5334 33.4899 34.5334 33.5539 34.5334 33.6243C34.5334 33.6797 34.5179 33.7213 34.4869 33.749C34.4581 33.7746 34.4237 33.7874 34.3839 33.7874C34.344 33.7874 34.3086 33.7746 34.2776 33.749C34.2488 33.7213 34.2344 33.6797 34.2344 33.6243Z" fill="#FFF9F1"/>
<path d="M31.2422 33.6275C31.2422 33.5806 31.2422 33.5347 31.2422 33.4899C31.2422 33.443 31.2422 33.3982 31.2422 33.3556C31.2422 33.3108 31.2422 33.2692 31.2422 33.2308C31.2422 33.1924 31.2422 33.1466 31.2422 33.0932C31.2422 33.0399 31.2422 32.9823 31.2422 32.9205C31.2422 32.8586 31.2422 32.7957 31.2422 32.7318C31.2422 32.6678 31.2422 32.6049 31.2422 32.543C31.2422 32.4812 31.2422 32.4246 31.2422 32.3735C31.2422 32.3137 31.2422 32.2583 31.2422 32.2071C31.2422 32.1538 31.2422 32.1037 31.2422 32.0568C31.2422 32.0077 31.2422 31.9587 31.2422 31.9096C31.2422 31.8584 31.2422 31.804 31.2422 31.7465C31.2422 31.7017 31.2484 31.6644 31.2609 31.6345C31.2733 31.6025 31.2899 31.579 31.3107 31.5641C31.3335 31.5492 31.3585 31.5439 31.3855 31.5481C31.4145 31.5503 31.4446 31.562 31.4758 31.5833C31.5069 31.6046 31.537 31.6366 31.5661 31.6793C31.5972 31.7219 31.6263 31.7635 31.6533 31.804C31.6824 31.8424 31.7094 31.8808 31.7343 31.9192C31.7613 31.9576 31.7872 31.9949 31.8121 32.0312C31.8371 32.0674 31.862 32.1037 31.8869 32.1399C31.9243 32.1954 31.9689 32.2604 32.0208 32.3351C32.0727 32.4076 32.1267 32.4844 32.1828 32.5654C32.2409 32.6464 32.297 32.7264 32.351 32.8053C32.4049 32.8842 32.4537 32.9567 32.4973 33.0229C32.5389 33.0847 32.5814 33.1423 32.625 33.1956C32.6707 33.2489 32.7133 33.299 32.7527 33.346C32.7922 33.3929 32.8244 33.4377 32.8493 33.4803C32.8742 33.523 32.8867 33.5646 32.8867 33.6051C32.8867 33.6477 32.8794 33.6829 32.8649 33.7106C32.8524 33.7362 32.8348 33.7544 32.8119 33.765C32.7911 33.7778 32.7662 33.781 32.7372 33.7746C32.7102 33.7704 32.6811 33.7565 32.65 33.733C32.6188 33.7096 32.5887 33.6776 32.5596 33.6371C32.5285 33.5944 32.5129 33.5571 32.5129 33.5251C32.515 33.491 32.5233 33.4569 32.5378 33.4227C32.5524 33.3886 32.5669 33.3481 32.5814 33.3012C32.598 33.2521 32.6064 33.1913 32.6064 33.1188C32.6064 33.0634 32.6064 32.9994 32.6064 32.9269C32.6064 32.8544 32.6064 32.7797 32.6064 32.703C32.6064 32.6241 32.6064 32.5473 32.6064 32.4726C32.6064 32.398 32.6064 32.3308 32.6064 32.2711C32.6064 32.2092 32.6064 32.1613 32.6064 32.1271C32.6064 32.0802 32.6064 32.0344 32.6064 31.9896C32.6064 31.9427 32.6064 31.8957 32.6064 31.8488C32.6064 31.8019 32.6064 31.755 32.6064 31.7081C32.6064 31.6526 32.6198 31.6121 32.6468 31.5865C32.6759 31.5588 32.7091 31.5449 32.7465 31.5449C32.7839 31.5449 32.8161 31.5588 32.8431 31.5865C32.8721 31.6121 32.8867 31.6526 32.8867 31.7081C32.8867 31.755 32.8867 31.8008 32.8867 31.8456C32.8867 31.8883 32.8867 31.9341 32.8867 31.9832C32.8867 32.0301 32.8867 32.0856 32.8867 32.1495C32.8867 32.2135 32.8867 32.2914 32.8867 32.3831C32.8867 32.4726 32.8867 32.5665 32.8867 32.6646C32.8867 32.7605 32.8867 32.8522 32.8867 32.9397C32.8867 33.025 32.8867 33.0954 32.8867 33.1508C32.8867 33.1807 32.8867 33.2105 32.8867 33.2404C32.8867 33.2702 32.8867 33.3001 32.8867 33.33C32.8867 33.3598 32.8867 33.3897 32.8867 33.4195C32.8867 33.4494 32.8867 33.4803 32.8867 33.5123C32.8867 33.5422 32.8867 33.5731 32.8867 33.6051C32.8867 33.6477 32.8794 33.6829 32.8649 33.7106C32.8524 33.7362 32.8348 33.7544 32.8119 33.765C32.7911 33.7778 32.7662 33.781 32.7372 33.7746C32.7102 33.7704 32.6811 33.7565 32.65 33.733C32.6188 33.7096 32.5887 33.6776 32.5596 33.6371C32.5347 33.6029 32.5129 33.572 32.4942 33.5443C32.4755 33.5166 32.4579 33.491 32.4413 33.4675C32.4247 33.4419 32.4081 33.4174 32.3915 33.3939C32.3769 33.3705 32.3613 33.346 32.3447 33.3204C32.3281 33.2948 32.3094 33.266 32.2887 33.234C32.2554 33.1849 32.2202 33.1316 32.1828 33.074C32.1454 33.0165 32.106 32.9578 32.0644 32.8981C32.0229 32.8384 31.9814 32.7797 31.9398 32.7222C31.9004 32.6624 31.862 32.6059 31.8246 32.5526C31.7872 32.4972 31.753 32.446 31.7218 32.3991C31.699 32.3649 31.6782 32.3351 31.6595 32.3095C31.6429 32.2839 31.6284 32.2615 31.6159 32.2423C31.6035 32.2231 31.5921 32.2071 31.5817 32.1943C31.5734 32.1794 31.5651 32.1655 31.5568 32.1527C31.5485 32.1421 31.5422 32.1335 31.5381 32.1271C31.5339 32.1207 31.5298 32.1165 31.5256 32.1143C31.5235 32.1122 31.5225 32.1133 31.5225 32.1175C31.5225 32.1218 31.5225 32.1282 31.5225 32.1367C31.5225 32.1453 31.5225 32.157 31.5225 32.1719C31.5225 32.1869 31.5225 32.2028 31.5225 32.2199C31.5225 32.2348 31.5225 32.2519 31.5225 32.2711C31.5225 32.2882 31.5225 32.3074 31.5225 32.3287C31.5225 32.3479 31.5225 32.3703 31.5225 32.3959C31.5225 32.4214 31.5225 32.4502 31.5225 32.4822C31.5225 32.5441 31.5225 32.6049 31.5225 32.6646C31.5225 32.7222 31.5225 32.7808 31.5225 32.8405C31.5225 32.9002 31.5225 32.9621 31.5225 33.0261C31.5225 33.09 31.5225 33.1583 31.5225 33.2308C31.5225 33.2777 31.5225 33.3225 31.5225 33.3652C31.5225 33.4078 31.5225 33.4505 31.5225 33.4931C31.5225 33.5336 31.5225 33.5784 31.5225 33.6275C31.5225 33.6808 31.508 33.7213 31.4789 33.749C31.4519 33.7746 31.4197 33.7874 31.3823 33.7874C31.345 33.7874 31.3117 33.7746 31.2827 33.749C31.2557 33.7213 31.2422 33.6808 31.2422 33.6275Z" fill="#FFF9F1"/>
<path d="M28.5342 31.7081C28.5342 31.7507 28.5342 31.7976 28.5342 31.8488C28.5342 31.9 28.5342 31.9512 28.5342 32.0024C28.5342 32.0536 28.5342 32.1005 28.5342 32.1431C28.5342 32.2583 28.5342 32.3585 28.5342 32.4438C28.5342 32.527 28.5342 32.6049 28.5342 32.6774C28.5342 32.7477 28.5342 32.8213 28.5342 32.8981C28.5342 33.0154 28.5571 33.1199 28.6027 33.2116C28.6484 33.3012 28.7117 33.3716 28.7927 33.4227C28.8758 33.4739 28.9713 33.4995 29.0793 33.4995C29.1914 33.4995 29.2869 33.4739 29.3658 33.4227C29.4468 33.3716 29.5091 33.3012 29.5527 33.2116C29.5963 33.1199 29.6181 33.0154 29.6181 32.8981C29.6181 32.8213 29.6181 32.7477 29.6181 32.6774C29.6181 32.6049 29.6181 32.527 29.6181 32.4438C29.6181 32.3585 29.6181 32.2583 29.6181 32.1431C29.6181 32.1069 29.6181 32.0621 29.6181 32.0088C29.6181 31.9533 29.6181 31.8989 29.6181 31.8456C29.6181 31.7923 29.6181 31.7465 29.6181 31.7081C29.6181 31.6548 29.6316 31.6142 29.6586 31.5865C29.6876 31.5588 29.7208 31.5449 29.7582 31.5449C29.7956 31.5449 29.8278 31.5588 29.8548 31.5865C29.8838 31.6142 29.8984 31.6548 29.8984 31.7081C29.8984 31.7507 29.8984 31.7976 29.8984 31.8488C29.8984 31.9 29.8984 31.9512 29.8984 32.0024C29.8984 32.0536 29.8984 32.1005 29.8984 32.1431C29.8984 32.2199 29.8984 32.2946 29.8984 32.3671C29.8984 32.4374 29.8984 32.5153 29.8984 32.6006C29.8984 32.6838 29.8984 32.7829 29.8984 32.8981C29.8984 33.0261 29.8787 33.1444 29.8392 33.2532C29.7998 33.362 29.7437 33.4569 29.671 33.5379C29.5983 33.6168 29.5122 33.6787 29.4125 33.7234C29.3128 33.7661 29.2018 33.7874 29.0793 33.7874C28.9609 33.7874 28.8509 33.7661 28.7491 33.7234C28.6495 33.6787 28.5622 33.6168 28.4875 33.5379C28.4148 33.4569 28.3577 33.362 28.3162 33.2532C28.2747 33.1444 28.2539 33.0261 28.2539 32.8981C28.2539 32.7829 28.2539 32.6838 28.2539 32.6006C28.2539 32.5153 28.2539 32.4374 28.2539 32.3671C28.2539 32.2946 28.2539 32.2199 28.2539 32.1431C28.2539 32.1069 28.2539 32.0621 28.2539 32.0088C28.2539 31.9533 28.2539 31.8989 28.2539 31.8456C28.2539 31.7923 28.2539 31.7465 28.2539 31.7081C28.2539 31.6548 28.2674 31.6142 28.2944 31.5865C28.3235 31.5588 28.3567 31.5449 28.3941 31.5449C28.4314 31.5449 28.4636 31.5588 28.4906 31.5865C28.5197 31.6142 28.5342 31.6548 28.5342 31.7081Z" fill="#FFF9F1"/>
<path d="M26.7863 31.9384C26.7006 31.9021 26.617 31.8755 26.5355 31.8584C26.4562 31.8414 26.3802 31.8328 26.3073 31.8328C26.1894 31.835 26.0833 31.8574 25.989 31.9C25.8968 31.9427 25.8186 32.0024 25.7543 32.0792C25.69 32.1538 25.6407 32.2412 25.6064 32.3415C25.5721 32.4417 25.555 32.5494 25.555 32.6646C25.555 32.7819 25.571 32.8906 25.6032 32.9909C25.6353 33.0911 25.6814 33.1796 25.7414 33.2564C25.8036 33.3332 25.8797 33.3929 25.9697 33.4355C26.0619 33.4782 26.1658 33.4995 26.2816 33.4995C26.3866 33.4995 26.4712 33.4931 26.5355 33.4803C26.602 33.4654 26.6513 33.4473 26.6834 33.4259C26.7177 33.4025 26.7381 33.379 26.7445 33.3556C26.7617 33.3065 26.7702 33.2511 26.7702 33.1892C26.7702 33.1274 26.7702 33.0612 26.7702 32.9909C26.7702 32.9503 26.767 32.9216 26.7606 32.9045C26.7563 32.8853 26.7467 32.8757 26.7317 32.8757C26.6524 32.8757 26.5806 32.8757 26.5163 32.8757C26.452 32.8757 26.4016 32.8757 26.3652 32.8757C26.3116 32.8757 26.2708 32.8618 26.243 32.8341C26.2151 32.8043 26.2012 32.7701 26.2012 32.7318C26.2012 32.6934 26.2151 32.6603 26.243 32.6326C26.2708 32.6027 26.3116 32.5878 26.3652 32.5878C26.4209 32.5878 26.4852 32.5878 26.5581 32.5878C26.6309 32.5878 26.6942 32.5878 26.7477 32.5878C26.8099 32.5878 26.8646 32.5985 26.9117 32.6198C26.9589 32.6411 26.9953 32.6795 27.021 32.7349C27.0467 32.7883 27.0596 32.8629 27.0596 32.9589C27.0596 33.0399 27.0596 33.1082 27.0596 33.1636C27.0596 33.2169 27.0564 33.266 27.0499 33.3108C27.0457 33.3534 27.036 33.3982 27.021 33.4451C27.006 33.4856 26.9792 33.5262 26.9406 33.5667C26.9021 33.6072 26.8506 33.6445 26.7863 33.6787C26.7242 33.7106 26.6502 33.7362 26.5645 33.7554C26.4809 33.7768 26.3866 33.7874 26.2816 33.7874C26.1251 33.7874 25.9836 33.7586 25.8572 33.701C25.7329 33.6435 25.6268 33.5635 25.5389 33.4611C25.451 33.3588 25.3835 33.2404 25.3364 33.106C25.2892 32.9695 25.2656 32.8224 25.2656 32.6646C25.2656 32.4577 25.3085 32.27 25.3942 32.1015C25.48 31.9331 25.6 31.7987 25.7543 31.6985C25.9108 31.5982 26.0951 31.5471 26.3073 31.5449C26.3652 31.5449 26.4262 31.5492 26.4905 31.5577C26.5548 31.5662 26.6202 31.5801 26.6867 31.5993C26.7552 31.6185 26.8249 31.642 26.8956 31.6697C26.9471 31.691 26.9792 31.7209 26.9921 31.7593C27.0071 31.7955 27.0071 31.8318 26.9921 31.868C26.9771 31.9021 26.9514 31.9277 26.9149 31.9448C26.8785 31.9597 26.8356 31.9576 26.7863 31.9384Z" fill="#FFF9F1"/>
<path d="M20.9407 33.579C20.9552 33.5366 20.9688 33.4974 20.9813 33.4614C20.9938 33.4233 21.0063 33.3862 21.0188 33.3502C21.0333 33.312 21.0479 33.2718 21.0625 33.2294C21.0854 33.1616 21.1146 33.1055 21.15 33.061C21.1854 33.0143 21.2302 32.9794 21.2843 32.9561C21.3405 32.9306 21.4072 32.9179 21.4842 32.9179C21.5134 32.9179 21.5519 32.9179 21.5998 32.9179C21.6477 32.9179 21.6977 32.9179 21.7498 32.9179C21.8039 32.9179 21.8549 32.9179 21.9028 32.9179C21.9528 32.9179 21.9945 32.9179 22.0278 32.9179C22.0695 32.9179 22.1028 32.9275 22.1278 32.9465C22.1548 32.9656 22.1725 32.99 22.1809 33.0196C22.1892 33.0472 22.1892 33.0758 22.1809 33.1055C22.1725 33.133 22.1548 33.1563 22.1278 33.1754C22.1028 33.1944 22.0695 33.204 22.0278 33.204C21.9924 33.204 21.9549 33.204 21.9153 33.204C21.8758 33.204 21.8372 33.204 21.7998 33.204C21.7643 33.204 21.7321 33.204 21.7029 33.204C21.6738 33.204 21.6529 33.204 21.6404 33.204C21.5509 33.204 21.4759 33.1881 21.4155 33.1563C21.3572 33.1224 21.3124 33.0768 21.2812 33.0196C21.252 32.9624 21.2364 32.8957 21.2343 32.8194C21.2343 32.7431 21.2489 32.6616 21.2781 32.5747C21.2968 32.5175 21.3166 32.4592 21.3374 32.3999C21.3603 32.3405 21.3822 32.2802 21.403 32.2187C21.4259 32.1552 21.4488 32.0905 21.4717 32.0248C21.4946 31.957 21.5176 31.8871 21.5405 31.8151C21.5717 31.7261 21.6113 31.6593 21.6592 31.6148C21.7092 31.5682 21.7623 31.5449 21.8185 31.5449C21.8747 31.5449 21.9278 31.5682 21.9778 31.6148C22.0299 31.6593 22.0726 31.7271 22.1059 31.8183C22.1371 31.9051 22.1694 31.9973 22.2027 32.0948C22.2361 32.1922 22.2694 32.2918 22.3027 32.3935C22.336 32.4931 22.3683 32.5916 22.3995 32.6891C22.4329 32.7866 22.4641 32.8798 22.4933 32.9688C22.5224 33.0557 22.5495 33.1341 22.5745 33.204C22.587 33.2358 22.6005 33.2728 22.6151 33.3152C22.6297 33.3576 22.6443 33.4021 22.6588 33.4487C22.6755 33.4932 22.6911 33.5366 22.7057 33.579C22.7244 33.6299 22.7244 33.6733 22.7057 33.7093C22.689 33.7432 22.663 33.7665 22.6276 33.7792C22.5922 33.792 22.5568 33.7898 22.5214 33.7729C22.486 33.7581 22.4599 33.7252 22.4433 33.6744C22.4287 33.6341 22.4131 33.5917 22.3964 33.5472C22.3818 33.5006 22.3673 33.4561 22.3527 33.4137C22.3381 33.3714 22.3246 33.3332 22.3121 33.2993C22.2808 33.2103 22.2454 33.1097 22.2059 32.9974C22.1684 32.883 22.1288 32.7643 22.0872 32.6414C22.0476 32.5185 22.007 32.3978 21.9653 32.2791C21.9257 32.1604 21.8883 32.0524 21.8529 31.9549C21.8424 31.9231 21.8341 31.903 21.8279 31.8945C21.8237 31.8861 21.8185 31.8882 21.8122 31.9009C21.8081 31.9115 21.8008 31.9327 21.7904 31.9645C21.7716 32.0217 21.7519 32.0799 21.731 32.1393C21.7102 32.1986 21.6894 32.2579 21.6685 32.3172C21.6477 32.3766 21.6269 32.4359 21.6061 32.4952C21.5852 32.5546 21.5655 32.6128 21.5467 32.67C21.5342 32.7061 21.5248 32.74 21.5186 32.7717C21.5144 32.8014 21.5144 32.8279 21.5186 32.8512C21.5228 32.8724 21.5342 32.8893 21.553 32.902C21.5738 32.9126 21.6029 32.9179 21.6404 32.9179C21.6675 32.9179 21.705 32.9179 21.7529 32.9179C21.8029 32.9179 21.8529 32.9179 21.9028 32.9179C21.9549 32.9179 21.9966 32.9179 22.0278 32.9179C22.0695 32.9179 22.1028 32.9275 22.1278 32.9465C22.1548 32.9656 22.1725 32.99 22.1809 33.0196C22.1892 33.0472 22.1892 33.0758 22.1809 33.1055C22.1725 33.133 22.1548 33.1563 22.1278 33.1754C22.1028 33.1944 22.0695 33.204 22.0278 33.204C21.9778 33.204 21.9299 33.204 21.8841 33.204C21.8383 33.204 21.7925 33.204 21.7466 33.204C21.7029 33.204 21.6592 33.204 21.6154 33.204C21.5717 33.204 21.528 33.204 21.4842 33.204C21.4488 33.204 21.4218 33.2082 21.403 33.2167C21.3843 33.2231 21.3697 33.2358 21.3593 33.2548C21.3489 33.2718 21.3374 33.2951 21.3249 33.3248C21.3103 33.3671 21.2968 33.4074 21.2843 33.4455C21.2718 33.4815 21.2583 33.5186 21.2437 33.5568C21.2312 33.5928 21.2177 33.632 21.2031 33.6744C21.1864 33.7252 21.1604 33.7581 21.125 33.7729C21.0896 33.7898 21.0542 33.792 21.0188 33.7792C20.9834 33.7665 20.9563 33.7432 20.9375 33.7093C20.9209 33.6733 20.9219 33.6299 20.9407 33.579Z" fill="#FFF9F1"/>
<path d="M19.4336 33.6243C19.4336 33.5539 19.4336 33.4899 19.4336 33.4323C19.4336 33.3747 19.4336 33.3225 19.4336 33.2756C19.4336 33.2265 19.4336 33.1817 19.4336 33.1412C19.4336 33.0389 19.4336 32.9344 19.4336 32.8277C19.4336 32.7211 19.4336 32.6145 19.4336 32.5078C19.4336 32.3991 19.4336 32.2946 19.4336 32.1943C19.4336 32.1453 19.4336 32.0973 19.4336 32.0504C19.4336 32.0013 19.4336 31.9491 19.4336 31.8936C19.4336 31.8382 19.4336 31.7752 19.4336 31.7049C19.4336 31.6516 19.448 31.6121 19.4768 31.5865C19.5078 31.5588 19.5432 31.5449 19.5831 31.5449C19.623 31.5449 19.6573 31.5588 19.6861 31.5865C19.7171 31.6121 19.7326 31.6516 19.7326 31.7049C19.7326 31.7752 19.7326 31.8382 19.7326 31.8936C19.7326 31.9491 19.7326 32.0013 19.7326 32.0504C19.7326 32.0973 19.7326 32.1453 19.7326 32.1943C19.7326 32.2946 19.7326 32.3991 19.7326 32.5078C19.7326 32.6145 19.7326 32.7211 19.7326 32.8277C19.7326 32.9344 19.7326 33.0389 19.7326 33.1412C19.7326 33.1817 19.7326 33.2265 19.7326 33.2756C19.7326 33.3225 19.7326 33.3747 19.7326 33.4323C19.7326 33.4899 19.7326 33.5539 19.7326 33.6243C19.7326 33.6797 19.7171 33.7213 19.6861 33.749C19.6573 33.7746 19.623 33.7874 19.5831 33.7874C19.5432 33.7874 19.5078 33.7746 19.4768 33.749C19.448 33.7213 19.4336 33.6797 19.4336 33.6243Z" fill="#FFF9F1"/>
<path d="M18.2352 33.7874C18.181 33.7874 18.1207 33.7874 18.054 33.7874C17.9895 33.7874 17.9187 33.7874 17.8417 33.7874C17.7647 33.7874 17.6814 33.7874 17.5919 33.7874C17.4982 33.7874 17.4243 33.7798 17.3702 33.7647C17.3161 33.7473 17.2765 33.7181 17.2515 33.6769C17.2265 33.6358 17.2109 33.5762 17.2047 33.4982C17.1984 33.4202 17.1953 33.3194 17.1953 33.1959C17.1953 33.0638 17.1953 32.9338 17.1953 32.8059C17.1953 32.6781 17.1953 32.5546 17.1953 32.4354C17.1953 32.3141 17.1953 32.2014 17.1953 32.0974C17.1953 32.0519 17.1953 32.0097 17.1953 31.9707C17.1953 31.9295 17.1953 31.8873 17.1953 31.8439C17.1953 31.8006 17.1953 31.7551 17.1953 31.7074C17.1953 31.6533 17.2088 31.6132 17.2359 31.5872C17.2651 31.559 17.2984 31.5449 17.3358 31.5449C17.3733 31.5449 17.4056 31.559 17.4326 31.5872C17.4618 31.6132 17.4764 31.6533 17.4764 31.7074C17.4764 31.7551 17.4764 31.7995 17.4764 31.8407C17.4764 31.8818 17.4764 31.923 17.4764 31.9642C17.4764 32.0053 17.4764 32.0498 17.4764 32.0974C17.4764 32.1733 17.4764 32.2502 17.4764 32.3282C17.4764 32.4062 17.4764 32.4874 17.4764 32.5719C17.4764 32.6543 17.4764 32.742 17.4764 32.8352C17.4764 32.9262 17.4764 33.0237 17.4764 33.1277C17.4764 33.2187 17.4764 33.2891 17.4764 33.3389C17.4764 33.3888 17.4805 33.4256 17.4888 33.4494C17.4972 33.4711 17.5138 33.4841 17.5388 33.4884C17.5638 33.4928 17.6013 33.4949 17.6512 33.4949C17.7012 33.4949 17.7491 33.4949 17.7949 33.4949C17.8407 33.4949 17.8865 33.4949 17.9323 33.4949C17.9801 33.4949 18.0291 33.4949 18.079 33.4949C18.129 33.4949 18.181 33.4949 18.2352 33.4949C18.2872 33.4949 18.3257 33.5101 18.3507 33.5404C18.3778 33.5686 18.3913 33.6022 18.3913 33.6412C18.3913 33.6802 18.3778 33.7148 18.3507 33.7452C18.3257 33.7733 18.2872 33.7874 18.2352 33.7874Z" fill="#FFF9F1"/>
<path d="M14.2141 33.579C14.2287 33.5366 14.2422 33.4974 14.2547 33.4614C14.2672 33.4233 14.2797 33.3862 14.2922 33.3502C14.3068 33.312 14.3214 33.2718 14.3359 33.2294C14.3588 33.1616 14.388 33.1055 14.4234 33.061C14.4588 33.0143 14.5036 32.9794 14.5577 32.9561C14.614 32.9306 14.6806 32.9179 14.7577 32.9179C14.7868 32.9179 14.8254 32.9179 14.8733 32.9179C14.9212 32.9179 14.9711 32.9179 15.0232 32.9179C15.0774 32.9179 15.1284 32.9179 15.1763 32.9179C15.2263 32.9179 15.2679 32.9179 15.3012 32.9179C15.3429 32.9179 15.3762 32.9275 15.4012 32.9465C15.4283 32.9656 15.446 32.99 15.4543 33.0196C15.4626 33.0472 15.4626 33.0758 15.4543 33.1055C15.446 33.133 15.4283 33.1563 15.4012 33.1754C15.3762 33.1944 15.3429 33.204 15.3012 33.204C15.2658 33.204 15.2283 33.204 15.1888 33.204C15.1492 33.204 15.1107 33.204 15.0732 33.204C15.0378 33.204 15.0055 33.204 14.9763 33.204C14.9472 33.204 14.9264 33.204 14.9139 33.204C14.8243 33.204 14.7493 33.1881 14.6889 33.1563C14.6306 33.1224 14.5859 33.0768 14.5546 33.0196C14.5255 32.9624 14.5098 32.8957 14.5078 32.8194C14.5078 32.7431 14.5223 32.6616 14.5515 32.5747C14.5702 32.5175 14.59 32.4592 14.6108 32.3999C14.6338 32.3405 14.6556 32.2802 14.6764 32.2187C14.6994 32.1552 14.7223 32.0905 14.7452 32.0248C14.7681 31.957 14.791 31.8871 14.8139 31.8151C14.8451 31.7261 14.8847 31.6593 14.9326 31.6148C14.9826 31.5682 15.0357 31.5449 15.0919 31.5449C15.1482 31.5449 15.2013 31.5682 15.2513 31.6148C15.3033 31.6593 15.346 31.7271 15.3793 31.8183C15.4106 31.9051 15.4429 31.9973 15.4762 32.0948C15.5095 32.1922 15.5428 32.2918 15.5761 32.3935C15.6095 32.4931 15.6417 32.5916 15.673 32.6891C15.7063 32.7866 15.7375 32.8798 15.7667 32.9688C15.7959 33.0557 15.8229 33.1341 15.8479 33.204C15.8604 33.2358 15.874 33.2728 15.8885 33.3152C15.9031 33.3576 15.9177 33.4021 15.9323 33.4487C15.9489 33.4932 15.9646 33.5366 15.9791 33.579C15.9979 33.6299 15.9979 33.6733 15.9791 33.7093C15.9625 33.7432 15.9364 33.7665 15.901 33.7792C15.8656 33.792 15.8302 33.7898 15.7948 33.7729C15.7594 33.7581 15.7334 33.7252 15.7167 33.6744C15.7021 33.6341 15.6865 33.5917 15.6699 33.5472C15.6553 33.5006 15.6407 33.4561 15.6261 33.4137C15.6115 33.3714 15.598 33.3332 15.5855 33.2993C15.5543 33.2103 15.5189 33.1097 15.4793 32.9974C15.4418 32.883 15.4022 32.7643 15.3606 32.6414C15.321 32.5185 15.2804 32.3978 15.2388 32.2791C15.1992 32.1604 15.1617 32.0524 15.1263 31.9549C15.1159 31.9231 15.1076 31.903 15.1013 31.8945C15.0971 31.8861 15.0919 31.8882 15.0857 31.9009C15.0815 31.9115 15.0742 31.9327 15.0638 31.9645C15.0451 32.0217 15.0253 32.0799 15.0045 32.1393C14.9836 32.1986 14.9628 32.2579 14.942 32.3172C14.9212 32.3766 14.9003 32.4359 14.8795 32.4952C14.8587 32.5546 14.8389 32.6128 14.8201 32.67C14.8077 32.7061 14.7983 32.74 14.792 32.7717C14.7879 32.8014 14.7879 32.8279 14.792 32.8512C14.7962 32.8724 14.8077 32.8893 14.8264 32.902C14.8472 32.9126 14.8764 32.9179 14.9139 32.9179C14.9409 32.9179 14.9784 32.9179 15.0263 32.9179C15.0763 32.9179 15.1263 32.9179 15.1763 32.9179C15.2283 32.9179 15.27 32.9179 15.3012 32.9179C15.3429 32.9179 15.3762 32.9275 15.4012 32.9465C15.4283 32.9656 15.446 32.99 15.4543 33.0196C15.4626 33.0472 15.4626 33.0758 15.4543 33.1055C15.446 33.133 15.4283 33.1563 15.4012 33.1754C15.3762 33.1944 15.3429 33.204 15.3012 33.204C15.2513 33.204 15.2034 33.204 15.1575 33.204C15.1117 33.204 15.0659 33.204 15.0201 33.204C14.9763 33.204 14.9326 33.204 14.8889 33.204C14.8451 33.204 14.8014 33.204 14.7577 33.204C14.7223 33.204 14.6952 33.2082 14.6764 33.2167C14.6577 33.2231 14.6431 33.2358 14.6327 33.2548C14.6223 33.2718 14.6108 33.2951 14.5983 33.3248C14.5838 33.3671 14.5702 33.4074 14.5577 33.4455C14.5452 33.4815 14.5317 33.5186 14.5171 33.5568C14.5046 33.5928 14.4911 33.632 14.4765 33.6744C14.4599 33.7252 14.4338 33.7581 14.3984 33.7729C14.363 33.7898 14.3276 33.792 14.2922 33.7792C14.2568 33.7665 14.2297 33.7432 14.211 33.7093C14.1943 33.6733 14.1954 33.6299 14.2141 33.579Z" fill="#FFF9F1"/>
<path d="M13.138 31.837C13.1048 31.837 13.0506 31.837 12.9753 31.837C12.9022 31.837 12.8169 31.837 12.7195 31.837C12.6242 31.837 12.5279 31.837 12.4304 31.837C12.3352 31.837 12.2466 31.837 12.1646 31.837C12.0849 31.837 12.024 31.837 11.9819 31.837C11.9376 31.837 11.9011 31.8273 11.8723 31.8078C11.8457 31.7883 11.828 31.7645 11.8191 31.7364C11.8103 31.7061 11.8103 31.6769 11.8191 31.6488C11.828 31.6185 11.8457 31.5936 11.8723 31.5741C11.9011 31.5547 11.9376 31.5449 11.9819 31.5449C12.0506 31.5449 12.1192 31.5514 12.1879 31.5644C12.2588 31.5752 12.3252 31.5947 12.3872 31.6228C12.4492 31.6488 12.5046 31.6834 12.5533 31.7267C12.6021 31.7699 12.6397 31.8219 12.6663 31.8824C12.6951 31.943 12.7095 32.0144 12.7095 32.0966C12.7095 32.1832 12.7095 32.2784 12.7095 32.3822C12.7095 32.4839 12.7095 32.5845 12.7095 32.684C12.7095 32.7814 12.7095 32.8701 12.7095 32.9501C12.7095 33.0302 12.7095 33.0908 12.7095 33.1319C12.7095 33.1838 12.7095 33.239 12.7095 33.2974C12.7095 33.3558 12.7095 33.4131 12.7095 33.4694C12.7095 33.5235 12.7095 33.5743 12.7095 33.6219C12.7095 33.676 12.694 33.7171 12.663 33.7452C12.6342 33.7734 12.5999 33.7874 12.56 33.7874C12.5201 33.7874 12.4847 33.7734 12.4537 33.7452C12.4249 33.7171 12.4105 33.676 12.4105 33.6219C12.4105 33.5743 12.4105 33.5235 12.4105 33.4694C12.4105 33.4131 12.4105 33.3558 12.4105 33.2974C12.4105 33.239 12.4105 33.1838 12.4105 33.1319C12.4105 33.0908 12.4105 33.028 12.4105 32.9436C12.4105 32.8571 12.4105 32.7619 12.4105 32.6581C12.4105 32.552 12.4105 32.4493 12.4105 32.3498C12.4105 32.2502 12.4105 32.1659 12.4105 32.0966C12.4105 32.0296 12.3983 31.9787 12.3739 31.9441C12.3496 31.9073 12.3164 31.8814 12.2743 31.8662C12.2344 31.8511 12.189 31.8424 12.1381 31.8402C12.0871 31.8381 12.0351 31.837 11.9819 31.837C11.9376 31.837 11.9011 31.8273 11.8723 31.8078C11.8457 31.7883 11.828 31.7645 11.8191 31.7364C11.8103 31.7061 11.8103 31.6769 11.8191 31.6488C11.828 31.6185 11.8457 31.5936 11.8723 31.5741C11.9011 31.5547 11.9376 31.5449 11.9819 31.5449C12.0506 31.5449 12.1303 31.5449 12.2211 31.5449C12.3141 31.5449 12.4083 31.5449 12.5035 31.5449C12.601 31.5449 12.694 31.5449 12.7826 31.5449C12.8712 31.5449 12.9465 31.5449 13.0085 31.5449C13.0727 31.5449 13.1159 31.5449 13.138 31.5449C13.1956 31.5449 13.2377 31.5601 13.2643 31.5904C13.2931 31.6185 13.3075 31.652 13.3075 31.691C13.3075 31.7299 13.2931 31.7645 13.2643 31.7948C13.2377 31.8229 13.1956 31.837 13.138 31.837Z" fill="#FFF9F1"/>
<path d="M9.13598 33.579C9.15056 33.5366 9.16409 33.4974 9.17659 33.4614C9.18909 33.4233 9.20158 33.3862 9.21408 33.3502C9.22866 33.312 9.24323 33.2718 9.25781 33.2294C9.28072 33.1616 9.30988 33.1055 9.34528 33.061C9.38069 33.0143 9.42546 32.9794 9.47961 32.9561C9.53584 32.9306 9.60249 32.9179 9.67954 32.9179C9.7087 32.9179 9.74723 32.9179 9.79513 32.9179C9.84303 32.9179 9.89301 32.9179 9.94508 32.9179C9.99923 32.9179 10.0503 32.9179 10.0982 32.9179C10.1481 32.9179 10.1898 32.9179 10.2231 32.9179C10.2648 32.9179 10.2981 32.9275 10.3231 32.9465C10.3502 32.9656 10.3679 32.99 10.3762 33.0196C10.3845 33.0472 10.3845 33.0758 10.3762 33.1055C10.3679 33.133 10.3502 33.1563 10.3231 33.1754C10.2981 33.1944 10.2648 33.204 10.2231 33.204C10.1877 33.204 10.1502 33.204 10.1106 33.204C10.0711 33.204 10.0325 33.204 9.99506 33.204C9.95966 33.204 9.92738 33.204 9.89822 33.204C9.86906 33.204 9.84824 33.204 9.83574 33.204C9.74619 33.204 9.67121 33.1881 9.61082 33.1563C9.5525 33.1224 9.50773 33.0768 9.47649 33.0196C9.44733 32.9624 9.43171 32.8957 9.42963 32.8194C9.42963 32.7431 9.44421 32.6616 9.47336 32.5747C9.49211 32.5175 9.51189 32.4592 9.53272 32.3999C9.55563 32.3405 9.5775 32.2802 9.59832 32.2187C9.62123 32.1552 9.64414 32.0905 9.66705 32.0248C9.68996 31.957 9.71287 31.8871 9.73578 31.8151C9.76701 31.7261 9.80658 31.6593 9.85449 31.6148C9.90447 31.5682 9.95758 31.5449 10.0138 31.5449C10.07 31.5449 10.1231 31.5682 10.1731 31.6148C10.2252 31.6593 10.2679 31.7271 10.3012 31.8183C10.3324 31.9051 10.3647 31.9973 10.3981 32.0948C10.4314 32.1922 10.4647 32.2918 10.498 32.3935C10.5313 32.4931 10.5636 32.5916 10.5949 32.6891C10.6282 32.7866 10.6594 32.8798 10.6886 32.9688C10.7177 33.0557 10.7448 33.1341 10.7698 33.204C10.7823 33.2358 10.7958 33.2728 10.8104 33.3152C10.825 33.3576 10.8396 33.4021 10.8541 33.4487C10.8708 33.4932 10.8864 33.5366 10.901 33.579C10.9197 33.6299 10.9197 33.6733 10.901 33.7093C10.8843 33.7432 10.8583 33.7665 10.8229 33.7792C10.7875 33.792 10.7521 33.7898 10.7167 33.7729C10.6813 33.7581 10.6553 33.7252 10.6386 33.6744C10.624 33.6341 10.6084 33.5917 10.5917 33.5472C10.5772 33.5006 10.5626 33.4561 10.548 33.4137C10.5334 33.3714 10.5199 33.3332 10.5074 33.2993C10.4761 33.2103 10.4407 33.1097 10.4012 32.9974C10.3637 32.883 10.3241 32.7643 10.2825 32.6414C10.2429 32.5185 10.2023 32.3978 10.1606 32.2791C10.1211 32.1604 10.0836 32.0524 10.0482 31.9549C10.0378 31.9231 10.0294 31.903 10.0232 31.8945C10.019 31.8861 10.0138 31.8882 10.0076 31.9009C10.0034 31.9115 9.9961 31.9327 9.98569 31.9645C9.96695 32.0217 9.94716 32.0799 9.92634 32.1393C9.90551 32.1986 9.88468 32.2579 9.86386 32.3172C9.84303 32.3766 9.8222 32.4359 9.80138 32.4952C9.78055 32.5546 9.76077 32.6128 9.74202 32.67C9.72953 32.7061 9.72016 32.74 9.71391 32.7717C9.70974 32.8014 9.70974 32.8279 9.71391 32.8512C9.71807 32.8724 9.72953 32.8893 9.74827 32.902C9.7691 32.9126 9.79825 32.9179 9.83574 32.9179C9.86282 32.9179 9.9003 32.9179 9.9482 32.9179C9.99819 32.9179 10.0482 32.9179 10.0982 32.9179C10.1502 32.9179 10.1919 32.9179 10.2231 32.9179C10.2648 32.9179 10.2981 32.9275 10.3231 32.9465C10.3502 32.9656 10.3679 32.99 10.3762 33.0196C10.3845 33.0472 10.3845 33.0758 10.3762 33.1055C10.3679 33.133 10.3502 33.1563 10.3231 33.1754C10.2981 33.1944 10.2648 33.204 10.2231 33.204C10.1731 33.204 10.1252 33.204 10.0794 33.204C10.0336 33.204 9.98777 33.204 9.94196 33.204C9.89822 33.204 9.85449 33.204 9.81075 33.204C9.76701 33.204 9.72328 33.204 9.67954 33.204C9.64414 33.204 9.61707 33.2082 9.59832 33.2167C9.57958 33.2231 9.565 33.2358 9.55459 33.2548C9.54417 33.2718 9.53272 33.2951 9.52022 33.3248C9.50564 33.3671 9.49211 33.4074 9.47961 33.4455C9.46712 33.4815 9.45358 33.5186 9.439 33.5568C9.42651 33.5928 9.41297 33.632 9.39839 33.6744C9.38173 33.7252 9.3557 33.7581 9.32029 33.7729C9.28489 33.7898 9.24948 33.792 9.21408 33.7792C9.17867 33.7665 9.1516 33.7432 9.13285 33.7093C9.11619 33.6733 9.11723 33.6299 9.13598 33.579Z" fill="#FFF9F1"/>
<path d="M6.28125 33.6275C6.28125 33.5806 6.28125 33.5347 6.28125 33.4899C6.28125 33.443 6.28125 33.3982 6.28125 33.3556C6.28125 33.3108 6.28125 33.2692 6.28125 33.2308C6.28125 33.1924 6.28125 33.1466 6.28125 33.0932C6.28125 33.0399 6.28125 32.9823 6.28125 32.9205C6.28125 32.8586 6.28125 32.7957 6.28125 32.7318C6.28125 32.6678 6.28125 32.6049 6.28125 32.543C6.28125 32.4812 6.28125 32.4246 6.28125 32.3735C6.28125 32.3137 6.28125 32.2583 6.28125 32.2071C6.28125 32.1538 6.28125 32.1037 6.28125 32.0568C6.28125 32.0077 6.28125 31.9587 6.28125 31.9096C6.28125 31.8584 6.28125 31.804 6.28125 31.7465C6.28125 31.7017 6.28748 31.6644 6.29994 31.6345C6.3124 31.6025 6.32901 31.579 6.34977 31.5641C6.37261 31.5492 6.39753 31.5439 6.42452 31.5481C6.45359 31.5503 6.48369 31.562 6.51484 31.5833C6.54599 31.6046 6.57609 31.6366 6.60516 31.6793C6.63631 31.7219 6.66538 31.7635 6.69237 31.804C6.72144 31.8424 6.74843 31.8808 6.77335 31.9192C6.80034 31.9576 6.82629 31.9949 6.85121 32.0312C6.87613 32.0674 6.90104 32.1037 6.92596 32.1399C6.96333 32.1954 7.00797 32.2604 7.05988 32.3351C7.11179 32.4076 7.16578 32.4844 7.22184 32.5654C7.27998 32.6464 7.33604 32.7264 7.39002 32.8053C7.44401 32.8842 7.4928 32.9567 7.53641 33.0229C7.57793 33.0847 7.6205 33.1423 7.6641 33.1956C7.70978 33.2489 7.75235 33.299 7.7918 33.346C7.83125 33.3929 7.86343 33.4377 7.88835 33.4803C7.91326 33.523 7.92572 33.5646 7.92572 33.6051C7.92572 33.6477 7.91845 33.6829 7.90392 33.7106C7.89146 33.7362 7.87381 33.7544 7.85097 33.765C7.83021 33.7778 7.80529 33.781 7.77622 33.7746C7.74923 33.7704 7.72016 33.7565 7.68902 33.733C7.65787 33.7096 7.62777 33.6776 7.5987 33.6371C7.56755 33.5944 7.55198 33.5571 7.55198 33.5251C7.55405 33.491 7.56236 33.4569 7.57689 33.4227C7.59143 33.3886 7.60596 33.3481 7.6205 33.3012C7.63711 33.2521 7.64541 33.1913 7.64541 33.1188C7.64541 33.0634 7.64541 32.9994 7.64541 32.9269C7.64541 32.8544 7.64541 32.7797 7.64541 32.703C7.64541 32.6241 7.64541 32.5473 7.64541 32.4726C7.64541 32.398 7.64541 32.3308 7.64541 32.2711C7.64541 32.2092 7.64541 32.1613 7.64541 32.1271C7.64541 32.0802 7.64541 32.0344 7.64541 31.9896C7.64541 31.9427 7.64541 31.8957 7.64541 31.8488C7.64541 31.8019 7.64541 31.755 7.64541 31.7081C7.64541 31.6526 7.65891 31.6121 7.6859 31.5865C7.71497 31.5588 7.74819 31.5449 7.78557 31.5449C7.82294 31.5449 7.85513 31.5588 7.88212 31.5865C7.91119 31.6121 7.92572 31.6526 7.92572 31.7081C7.92572 31.755 7.92572 31.8008 7.92572 31.8456C7.92572 31.8883 7.92572 31.9341 7.92572 31.9832C7.92572 32.0301 7.92572 32.0856 7.92572 32.1495C7.92572 32.2135 7.92572 32.2914 7.92572 32.3831C7.92572 32.4726 7.92572 32.5665 7.92572 32.6646C7.92572 32.7605 7.92572 32.8522 7.92572 32.9397C7.92572 33.025 7.92572 33.0954 7.92572 33.1508C7.92572 33.1807 7.92572 33.2105 7.92572 33.2404C7.92572 33.2702 7.92572 33.3001 7.92572 33.33C7.92572 33.3598 7.92572 33.3897 7.92572 33.4195C7.92572 33.4494 7.92572 33.4803 7.92572 33.5123C7.92572 33.5422 7.92572 33.5731 7.92572 33.6051C7.92572 33.6477 7.91845 33.6829 7.90392 33.7106C7.89146 33.7362 7.87381 33.7544 7.85097 33.765C7.83021 33.7778 7.80529 33.781 7.77622 33.7746C7.74923 33.7704 7.72016 33.7565 7.68902 33.733C7.65787 33.7096 7.62777 33.6776 7.5987 33.6371C7.57378 33.6029 7.55198 33.572 7.53329 33.5443C7.5146 33.5166 7.49696 33.491 7.48034 33.4675C7.46373 33.4419 7.44712 33.4174 7.43051 33.3939C7.41598 33.3705 7.4004 33.346 7.38379 33.3204C7.36718 33.2948 7.3485 33.266 7.32773 33.234C7.29451 33.1849 7.25921 33.1316 7.22184 33.074C7.18446 33.0165 7.14501 32.9578 7.10349 32.8981C7.06196 32.8384 7.02043 32.7797 6.9789 32.7222C6.93945 32.6624 6.90104 32.6059 6.86367 32.5526C6.82629 32.4972 6.79203 32.446 6.76089 32.3991C6.73805 32.3649 6.71728 32.3351 6.6986 32.3095C6.68199 32.2839 6.66745 32.2615 6.65499 32.2423C6.64254 32.2231 6.63112 32.2071 6.62073 32.1943C6.61243 32.1794 6.60412 32.1655 6.59582 32.1527C6.58751 32.1421 6.58128 32.1335 6.57713 32.1271C6.57298 32.1207 6.56882 32.1165 6.56467 32.1143C6.5626 32.1122 6.56156 32.1133 6.56156 32.1175C6.56156 32.1218 6.56156 32.1282 6.56156 32.1367C6.56156 32.1453 6.56156 32.157 6.56156 32.1719C6.56156 32.1869 6.56156 32.2028 6.56156 32.2199C6.56156 32.2348 6.56156 32.2519 6.56156 32.2711C6.56156 32.2882 6.56156 32.3074 6.56156 32.3287C6.56156 32.3479 6.56156 32.3703 6.56156 32.3959C6.56156 32.4214 6.56156 32.4502 6.56156 32.4822C6.56156 32.5441 6.56156 32.6049 6.56156 32.6646C6.56156 32.7222 6.56156 32.7808 6.56156 32.8405C6.56156 32.9002 6.56156 32.9621 6.56156 33.0261C6.56156 33.09 6.56156 33.1583 6.56156 33.2308C6.56156 33.2777 6.56156 33.3225 6.56156 33.3652C6.56156 33.4078 6.56156 33.4505 6.56156 33.4931C6.56156 33.5336 6.56156 33.5784 6.56156 33.6275C6.56156 33.6808 6.54702 33.7213 6.51795 33.749C6.49096 33.7746 6.45878 33.7874 6.4214 33.7874C6.38403 33.7874 6.35081 33.7746 6.32174 33.749C6.29475 33.7213 6.28125 33.6808 6.28125 33.6275Z" fill="#FFF9F1"/>
</svg>
