<svg width="24" height="24" viewBox="0 0 24 24" fill="none" xmlns="http://www.w3.org/2000/svg">
<path fill-rule="evenodd" clip-rule="evenodd" d="M3.53221 2L11.0005 8.76925L18.4689 2H3.53221ZM2.00117 2H2V2.00148L2.00117 2ZM2 3.38947V16.7369H10.0189C10.0063 16.5617 9.99998 16.3862 9.99998 16.2105C9.99998 12.4318 12.9101 9.36841 16.5 9.36841C17.7886 9.36841 18.9897 9.76315 20 10.444V3.39041L11.0005 11.5479L2 3.38947ZM19.1636 20.3301L19.3724 21.5489C18.5037 21.8496 17.6182 22 16.716 22C15.0554 22 13.7044 21.4908 12.663 20.4725C11.5543 19.3961 11 17.9715 11 16.1986C11 14.526 11.5255 13.1516 12.5766 12.0752C13.6612 10.9724 15.0362 10.4211 16.7016 10.4211C18.2086 10.4211 19.454 10.8485 20.4378 11.7032C20.9274 12.1306 21.3089 12.6556 21.5825 13.2782C21.8608 13.9219 22 14.6316 22 15.4072C22 16.6366 21.676 17.618 21.0281 18.3514C20.4475 19.0057 19.7924 19.3328 19.0629 19.3328C18.2854 19.3328 17.8582 18.9608 17.7814 18.2169C17.3015 18.9608 16.6536 19.3328 15.8377 19.3328C15.1802 19.3328 14.6595 19.1323 14.2755 18.7313C13.858 18.2987 13.6492 17.7051 13.6492 16.9505C13.6492 16.4493 13.744 15.9573 13.9336 15.4745C14.1232 14.9917 14.3859 14.5735 14.7218 14.22C15.3602 13.55 16.1809 13.2149 17.1839 13.2149C17.9422 13.2149 18.6501 13.3442 19.3076 13.6027L18.8253 16.8952C18.7773 17.217 18.7533 17.4518 18.7533 17.5995C18.7533 17.9636 18.8997 18.1456 19.1924 18.1456C19.5764 18.1456 19.9195 17.9003 20.2219 17.4096C20.5914 16.8134 20.7762 16.1063 20.7762 15.2885C20.7762 14.1646 20.4162 13.2887 19.6963 12.6609C18.8997 11.9697 17.911 11.6241 16.7304 11.6241C15.8185 11.6241 14.9882 11.8615 14.2396 12.3364C13.534 12.7848 13.0037 13.3916 12.6486 14.1567C12.3654 14.7794 12.2238 15.4706 12.2238 16.2303C12.2238 17.6708 12.699 18.8131 13.6492 19.6573C14.4843 20.4013 15.5449 20.7733 16.8312 20.7733C17.5654 20.7733 18.3429 20.6255 19.1636 20.3301ZM17.803 14.4258C17.5582 14.3519 17.3591 14.315 17.2055 14.315C16.932 14.315 16.6608 14.3902 16.392 14.5406C16.1233 14.6909 15.8929 14.8981 15.7009 15.1619C15.3074 15.6948 15.1106 16.291 15.1106 16.9505C15.1106 17.3199 15.197 17.6114 15.3698 17.8251C15.5425 18.0388 15.7777 18.1456 16.0753 18.1456C16.5072 18.1456 16.8648 17.9504 17.1479 17.5599C17.2967 17.3595 17.4142 16.9716 17.5006 16.3965L17.803 14.4258Z" fill="#20364B"/>
</svg>
