<svg width="130" height="143" viewBox="0 0 130 143" fill="none" xmlns="http://www.w3.org/2000/svg">
<path d="M130 65C130 100.899 100.899 130 65 130C29.1015 130 0 100.899 0 65C0 29.1015 29.1015 0 65 0C100.899 0 130 29.1015 130 65Z" fill="#FFF9F1"/>
<path d="M128.088 65C128.088 30.1573 99.8427 1.91176 65 1.91176C30.1573 1.91176 1.91176 30.1573 1.91176 65C1.91176 99.8427 30.1573 128.088 65 128.088V130C29.1015 130 0 100.899 0 65C0 29.1015 29.1015 0 65 0C100.899 0 130 29.1015 130 65C130 100.899 100.899 130 65 130V128.088C99.8427 128.088 128.088 99.8427 128.088 65Z" fill="#B02316"/>
<path d="M82 126C82 135.389 74.3888 143 65 143C55.6112 143 48 135.389 48 126C48 116.611 55.6112 109 65 109C74.3888 109 82 116.611 82 126Z" fill="#FFF9F1"/>
<path d="M80.1111 126C80.1111 117.654 73.3456 110.889 65 110.889C56.6544 110.889 49.8889 117.654 49.8889 126C49.8889 134.346 56.6544 141.111 65 141.111V143C55.6112 143 48 135.389 48 126C48 116.611 55.6112 109 65 109C74.3888 109 82 116.611 82 126C82 135.389 74.3888 143 65 143V141.111C73.3456 141.111 80.1111 134.346 80.1111 126Z" fill="#B02316"/>
<path d="M34 28.5C34 38.165 26.3888 46 17 46C7.61116 46 0 38.165 0 28.5C0 18.835 7.61116 11 17 11C26.3888 11 34 18.835 34 28.5Z" fill="#FFF9F1"/>
<path d="M32.1111 28.5C32.1111 19.9089 25.3456 12.9444 17 12.9444C8.65436 12.9444 1.88889 19.9089 1.88889 28.5C1.88889 37.0911 8.65436 44.0556 17 44.0556V46C7.61116 46 0 38.165 0 28.5C0 18.835 7.61116 11 17 11C26.3888 11 34 18.835 34 28.5C34 38.165 26.3888 46 17 46V44.0556C25.3456 44.0556 32.1111 37.0911 32.1111 28.5Z" fill="#B02316"/>
<path d="M130 28.5C130 38.165 122.389 46 113 46C103.611 46 96 38.165 96 28.5C96 18.835 103.611 11 113 11C122.389 11 130 18.835 130 28.5Z" fill="#FFF9F1"/>
<path d="M128.111 28.5C128.111 19.9089 121.346 12.9444 113 12.9444C104.654 12.9444 97.8889 19.9089 97.8889 28.5C97.8889 37.0911 104.654 44.0556 113 44.0556V46C103.611 46 96 38.165 96 28.5C96 18.835 103.611 11 113 11C122.389 11 130 18.835 130 28.5C130 38.165 122.389 46 113 46V44.0556C121.346 44.0556 128.111 37.0911 128.111 28.5Z" fill="#B02316"/>
<path d="M82 65C82 74.3888 74.3888 82 65 82C55.6112 82 48 74.3888 48 65C48 55.6112 55.6112 48 65 48C74.3888 48 82 55.6112 82 65Z" fill="#B02316"/>
<path d="M100.245 38.5697L101.325 40.1475L65.0014 65.0002L63.9219 63.4224L100.245 38.5697Z" fill="#B02316"/>
<path d="M64 66H66V110H64V66Z" fill="#B02316"/>
<path d="M29.755 38.5697L28.6754 40.1475L64.9986 65.0002L66.0781 63.4224L29.755 38.5697Z" fill="#B02316"/>
</svg>
