<svg width="143" height="143" viewBox="0 0 143 143" fill="none" xmlns="http://www.w3.org/2000/svg">
<path d="M71.6832 0.000341019C41.3538 0.000341019 15.3099 18.8987 4.88434 45.5682L16.2663 50.1799C20.5838 38.978 28.1852 29.3419 38.0742 22.5351C47.9631 15.7282 59.6781 12.0681 71.6832 12.0347C85.0224 12.0347 97.4277 16.6152 107.178 23.7607L114.346 14.0143C102.007 4.86822 87.0428 -0.0471568 71.6832 0.000341019ZM71.6832 13.7105C59.9752 13.7326 48.5464 17.2878 38.8918 23.9111C29.2372 30.5343 21.8063 39.9172 17.5711 50.8324L28.953 54.9972C32.2499 46.3494 38.1084 38.9142 45.7452 33.686C53.3819 28.4577 62.4329 25.6856 71.6877 25.7403L71.6832 13.7105ZM92.8204 17.8753L88.3025 29.3287C95.5153 31.9976 101.914 36.4898 106.873 42.3675C111.833 48.2452 115.185 55.3078 116.603 62.8667H128.986C127.424 52.8662 123.261 43.452 116.913 35.568C110.566 27.684 102.257 21.6072 92.8204 17.9468V17.8753ZM71.6832 27.4206C63.2919 27.4445 55.0798 29.8496 48.0014 34.3562C40.923 38.8629 35.269 45.2861 31.6968 52.8791C28.1309 60.4707 26.7918 68.9182 27.8352 77.2405C28.8785 85.5628 32.2615 93.4183 37.5911 99.8948C42.9193 106.375 49.9772 111.211 57.9446 113.84C65.912 116.468 74.4618 116.782 82.6004 114.744C90.7351 112.698 98.124 108.389 103.912 102.318C109.7 96.247 113.651 88.6609 115.307 80.4378H102.902C100.904 87.1814 96.7919 93.1042 91.1716 97.3325C85.5513 101.561 78.7207 103.871 71.6877 103.921C67.445 103.944 63.2397 103.127 59.3146 101.516C55.3895 99.905 51.8223 97.5328 48.8189 94.536C45.8154 91.5392 43.4353 87.9773 41.8158 84.0558C40.1963 80.1342 39.3695 75.9308 39.3831 71.688C39.3677 67.4448 40.1932 63.2405 41.8121 59.3182C43.431 55.3958 45.8111 51.8332 48.8149 48.8361C51.8187 45.8389 55.3866 43.4667 59.3125 41.8566C63.2384 40.2464 67.4445 39.4301 71.6877 39.4549C78.6979 39.4474 85.5184 41.7312 91.1106 45.9584C96.7028 50.1857 100.76 56.1247 102.665 62.8712H115.003C113.07 52.8232 107.679 43.7694 99.7666 37.2815C91.8542 30.7935 81.9197 27.281 71.6877 27.3536L71.6832 27.4206ZM132.574 33.9092L122.149 40.4023C126.543 47.2005 129.432 54.86 130.622 62.8667H143.004C141.751 52.5531 138.183 42.655 132.574 33.9092ZM71.3168 40.6838C49.2769 41.1262 34.6552 63.7247 43.3201 84.0262L55.0461 78.8291C54.03 76.5814 53.484 74.1498 53.4418 71.6836C53.4418 61.9104 61.5392 53.7415 71.3168 53.7415V40.6838ZM82.7657 43.0121L78.1763 55.0419C82.1088 56.673 85.0224 59.2291 87.2747 62.8667H100.985C99.7013 58.3683 97.3862 54.2314 94.2234 50.7847C91.0606 47.338 87.1375 44.6766 82.7657 43.0121ZM0 71.621C0 81.4656 1.95284 91.2165 6.18922 100.646L16.9187 95.7522C13.717 88.1322 12.0569 79.9533 12.0343 71.688L0 71.621ZM13.7101 71.621C13.6715 83.2175 17.1313 94.5561 23.6375 104.156C30.1437 113.755 39.3938 121.169 50.1796 125.429L54.6975 113.976C46.1762 110.658 38.854 104.847 33.6878 97.3014C28.5216 89.7562 25.7517 80.828 25.74 71.6836L13.7101 71.621ZM87.0021 80.4378C85.0224 84.0262 82.1088 87.0024 78.1763 88.2358L82.7657 100.337C87.1461 98.6743 91.0758 96.0081 94.2398 92.5524C97.4037 89.0966 99.7138 84.9475 100.985 80.4378H87.0021ZM116.603 80.4378C114.557 90.8662 108.966 100.265 100.778 107.04C92.5901 113.815 82.3102 117.547 71.6832 117.604V129.666C100.337 129.715 124.732 108.788 128.986 80.4378H116.603ZM130.617 80.4378C128.394 94.525 121.244 107.366 110.439 116.675C99.6347 125.983 85.8772 131.155 71.6162 131.27C55.3455 131.27 40.402 124.406 29.668 113.676L21.1551 122.149C34.1859 135.202 52.1324 143.005 71.9603 143.005C108.036 143.054 138.478 116.215 142.996 80.4423L130.617 80.4378ZM58.9741 84.3703L49.8757 93.4911C55.6587 99.2844 63.4976 102.556 71.6832 102.594V89.5585C66.9308 89.5604 62.3675 87.6975 58.9741 84.3703Z" fill="#B02316"/>
</svg>
