<svg width="143" height="143" viewBox="0 0 143 143" fill="none" xmlns="http://www.w3.org/2000/svg">
<path d="M50.8026 25.4013C50.8026 20.3774 49.3129 15.4663 46.5217 11.2891C43.7306 7.11189 39.7635 3.85614 35.122 1.93357C30.4805 0.0110059 25.3731 -0.492025 20.4458 0.48809C15.5184 1.46821 10.9923 3.88745 7.43988 7.43988C3.88745 10.9923 1.46821 15.5184 0.48809 20.4458C-0.492025 25.3731 0.011006 30.4805 1.93357 35.122C3.85614 39.7635 7.11189 43.7306 11.2891 46.5217C15.4663 49.3129 20.3774 50.8026 25.4013 50.8026V25.4013H50.8026Z" fill="#B02316"/>
<path d="M25.4013 92.1974C20.3774 92.1974 15.4663 93.6871 11.2891 96.4783C7.11189 99.2694 3.85614 103.237 1.93357 107.878C0.0110059 112.52 -0.492025 117.627 0.48809 122.554C1.46821 127.482 3.88745 132.008 7.43988 135.56C10.9923 139.113 15.5184 141.532 20.4458 142.512C25.3731 143.492 30.4805 142.989 35.122 141.066C39.7635 139.144 43.7306 135.888 46.5217 131.711C49.3129 127.534 50.8026 122.623 50.8026 117.599H25.4013V92.1974Z" fill="#B02316"/>
<path d="M92.1974 25.4013C92.1974 20.3774 93.6871 15.4663 96.4783 11.2891C99.2694 7.11189 103.237 3.85614 107.878 1.93357C112.52 0.0110059 117.627 -0.492025 122.554 0.48809C127.482 1.46821 132.008 3.88745 135.56 7.43988C139.113 10.9923 141.532 15.5184 142.512 20.4458C143.492 25.3731 142.989 30.4805 141.066 35.122C139.144 39.7635 135.888 43.7306 131.711 46.5217C127.534 49.3129 122.623 50.8026 117.599 50.8026V25.4013H92.1974Z" fill="#B02316"/>
<path d="M117.599 92.1974C122.623 92.1974 127.534 93.6871 131.711 96.4783C135.888 99.2694 139.144 103.237 141.066 107.878C142.989 112.52 143.492 117.627 142.512 122.554C141.532 127.482 139.113 132.008 135.56 135.56C132.008 139.113 127.482 141.532 122.554 142.512C117.627 143.492 112.52 142.989 107.878 141.066C103.237 139.144 99.2694 135.888 96.4783 131.711C93.6871 127.534 92.1974 122.623 92.1974 117.599H117.599V92.1974Z" fill="#B02316"/>
</svg>
