<svg width="143" height="143" viewBox="0 0 143 143" fill="none" xmlns="http://www.w3.org/2000/svg">
<path d="M70.9565 105.394C70.5556 104.993 70.3551 104.494 70.3551 103.896V72.7693C66.4075 72.7693 62.6365 72.0316 59.0421 70.5561C55.4477 69.0807 52.2598 66.9545 49.4785 64.1776C46.6972 61.4007 44.5916 58.21 43.1617 54.6056C41.7318 51.0012 41.0112 47.2284 41 43.2874V42.3197C41 41.3772 41.3182 40.5876 41.9547 39.9509C42.5911 39.3142 43.379 38.9972 44.3182 39H45.2855C49.121 39 52.8346 39.7504 56.4262 41.251C60.015 42.7545 63.1972 44.8947 65.9729 47.6716C68.2019 49.9016 70.0075 52.4345 71.3897 55.2704C72.772 58.1062 73.6874 61.1061 74.136 64.2702C74.7556 63.078 75.4509 61.956 76.222 60.9042C76.993 59.8579 77.8664 58.8467 78.8421 57.8706C81.6009 55.1021 84.7888 52.9632 88.4056 51.4542C92.0224 49.9451 95.7921 49.1933 99.7145 49.199H100.682C101.624 49.199 102.412 49.5173 103.045 50.1541C103.682 50.788 104 51.5748 104 52.5145V53.4864C104 57.4134 103.247 61.1861 101.742 64.8045C100.233 68.4229 98.0953 71.6122 95.328 74.3723C92.5523 77.1493 89.3841 79.2572 85.8234 80.6962C82.2626 82.1379 78.5084 82.8588 74.5608 82.8588V103.896C74.5608 104.494 74.3589 104.993 73.9551 105.394C73.5514 105.795 73.0509 105.997 72.4537 106C71.8565 106.003 71.3575 105.801 70.9565 105.394ZM70.4351 68.4566C70.4351 65.0906 69.7874 61.8817 68.4921 58.8299C67.1967 55.7781 65.3561 53.0614 62.9701 50.68C60.5841 48.2986 57.8687 46.4571 54.8238 45.1556C51.779 43.8541 48.5715 43.2061 45.2014 43.2117C45.2014 46.5777 45.8322 49.8034 47.0939 52.8889C48.3556 55.9744 50.178 58.7093 52.5612 61.0935C54.9444 63.4777 57.678 65.301 60.7621 66.5632C63.8463 67.8255 67.0706 68.4566 70.4351 68.4566ZM74.5608 78.6513C77.9252 78.6513 81.1327 78.0202 84.1832 76.758C87.2336 75.4957 89.9491 73.6725 92.3294 71.2882C94.7098 68.904 96.5505 66.1691 97.8514 63.0836C99.1523 59.9982 99.8 56.7724 99.7944 53.4064C96.4299 53.4064 93.2056 54.0558 90.1215 55.3545C87.0374 56.6532 84.3037 58.4933 81.9206 60.8747C79.5374 63.2562 77.715 65.9742 76.4533 69.0288C75.1916 72.0835 74.5608 75.291 74.5608 78.6513Z" fill="#B02316"/>
<path d="M50.8026 25.4013C50.8026 20.3774 49.3129 15.4663 46.5217 11.2891C43.7306 7.11188 39.7635 3.85614 35.122 1.93357C30.4805 0.0110059 25.3731 -0.492025 20.4458 0.48809C15.5184 1.46821 28.9538 21.8489 25.4013 25.4013C21.8489 28.9538 1.46821 15.5184 0.48809 20.4458C-0.492025 25.3731 0.011006 30.4805 1.93357 35.122C3.85614 39.7635 7.11189 43.7306 11.2891 46.5217C15.4663 49.3129 20.3774 50.8026 25.4013 50.8026V25.4013H50.8026Z" fill="#B02316"/>
<path d="M25.4013 92.1974C20.3774 92.1974 15.4663 93.6871 11.2891 96.4783C7.11188 99.2694 3.85614 103.237 1.93357 107.878C0.0110059 112.52 -0.492025 117.627 0.48809 122.554C1.46821 127.482 21.8489 114.046 25.4013 117.599C28.9538 121.151 15.5184 141.532 20.4458 142.512C25.3731 143.492 30.4805 142.989 35.122 141.066C39.7635 139.144 43.7306 135.888 46.5217 131.711C49.3129 127.534 50.8026 122.623 50.8026 117.599H25.4013V92.1974Z" fill="#B02316"/>
<path d="M92.1974 25.4013C92.1974 20.3774 93.6871 15.4663 96.4783 11.2891C99.2694 7.11188 103.237 3.85614 107.878 1.93357C112.52 0.0110059 117.627 -0.492025 122.554 0.48809C127.482 1.46821 114.046 21.8489 117.599 25.4013C121.151 28.9538 141.532 15.5184 142.512 20.4458C143.492 25.3731 142.989 30.4805 141.066 35.122C139.144 39.7635 135.888 43.7306 131.711 46.5217C127.534 49.3129 122.623 50.8026 117.599 50.8026V25.4013H92.1974Z" fill="#B02316"/>
<path d="M117.599 92.1974C122.623 92.1974 127.534 93.6871 131.711 96.4783C135.888 99.2694 139.144 103.237 141.066 107.878C142.989 112.52 143.492 117.627 142.512 122.554C141.532 127.482 121.151 114.046 117.599 117.599C114.046 121.151 127.482 141.532 122.554 142.512C117.627 143.492 112.52 142.989 107.878 141.066C103.237 139.144 99.2694 135.888 96.4783 131.711C93.6871 127.534 92.1974 122.623 92.1974 117.599H117.599V92.1974Z" fill="#B02316"/>
</svg>
