<svg width="542" height="542" viewBox="0 0 542 542" fill="none" xmlns="http://www.w3.org/2000/svg">
<g clip-path="url(#clip0_5655_27057)">
<rect width="542" height="542" fill="#FFF9F1"/>
<path d="M542 0H0V542H542V0Z" fill="#FFF9F1"/>
<mask id="mask0_5655_27057" style="mask-type:luminance" maskUnits="userSpaceOnUse" x="32" y="32" width="477" height="477">
<path d="M49.2246 164.082H32.8164V180.49H49.2246V164.082Z" fill="white"/>
<path d="M49.2246 180.49H32.8164V196.898H49.2246V180.49Z" fill="white"/>
<path d="M49.2246 196.898H32.8164V213.307H49.2246V196.898Z" fill="white"/>
<path d="M49.2246 213.307H32.8164V229.715H49.2246V213.307Z" fill="white"/>
<path d="M49.2246 262.531H32.8164V278.939H49.2246V262.531Z" fill="white"/>
<path d="M49.2246 278.939H32.8164V295.348H49.2246V278.939Z" fill="white"/>
<path d="M49.2246 328.164H32.8164V344.572H49.2246V328.164Z" fill="white"/>
<path d="M65.6328 164.082H49.2246V180.49H65.6328V164.082Z" fill="white"/>
<path d="M65.6328 180.49H49.2246V196.898H65.6328V180.49Z" fill="white"/>
<path d="M65.6328 213.307H49.2246V229.715H65.6328V213.307Z" fill="white"/>
<path d="M65.6328 246.123H49.2246V262.531H65.6328V246.123Z" fill="white"/>
<path d="M65.6328 262.531H49.2246V278.939H65.6328V262.531Z" fill="white"/>
<path d="M65.6328 295.348H49.2246V311.756H65.6328V295.348Z" fill="white"/>
<path d="M65.6328 328.164H49.2246V344.572H65.6328V328.164Z" fill="white"/>
<path d="M82.041 164.082H65.6328V180.49H82.041V164.082Z" fill="white"/>
<path d="M82.041 180.49H65.6328V196.898H82.041V180.49Z" fill="white"/>
<path d="M82.041 246.123H65.6328V262.531H82.041V246.123Z" fill="white"/>
<path d="M82.041 278.939H65.6328V295.348H82.041V278.939Z" fill="white"/>
<path d="M82.041 295.348H65.6328V311.756H82.041V295.348Z" fill="white"/>
<path d="M82.041 328.164H65.6328V344.572H82.041V328.164Z" fill="white"/>
<path d="M82.041 344.572H65.6328V360.98H82.041V344.572Z" fill="white"/>
<path d="M98.4492 164.082H82.041V180.49H98.4492V164.082Z" fill="white"/>
<path d="M98.4492 196.898H82.041V213.307H98.4492V196.898Z" fill="white"/>
<path d="M98.4492 229.715H82.041V246.123H98.4492V229.715Z" fill="white"/>
<path d="M98.4492 246.123H82.041V262.531H98.4492V246.123Z" fill="white"/>
<path d="M98.4492 262.531H82.041V278.939H98.4492V262.531Z" fill="white"/>
<path d="M98.4492 278.939H82.041V295.348H98.4492V278.939Z" fill="white"/>
<path d="M98.4492 328.164H82.041V344.572H98.4492V328.164Z" fill="white"/>
<path d="M114.857 164.082H98.4492V180.49H114.857V164.082Z" fill="white"/>
<path d="M114.857 213.307H98.4492V229.715H114.857V213.307Z" fill="white"/>
<path d="M114.857 246.123H98.4492V262.531H114.857V246.123Z" fill="white"/>
<path d="M114.857 262.531H98.4492V278.939H114.857V262.531Z" fill="white"/>
<path d="M114.857 295.348H98.4492V311.756H114.857V295.348Z" fill="white"/>
<path d="M114.857 344.572H98.4492V360.98H114.857V344.572Z" fill="white"/>
<path d="M131.266 180.49H114.857V196.898H131.266V180.49Z" fill="white"/>
<path d="M131.266 246.123H114.857V262.531H131.266V246.123Z" fill="white"/>
<path d="M131.266 278.939H114.857V295.348H131.266V278.939Z" fill="white"/>
<path d="M131.266 311.756H114.857V328.164H131.266V311.756Z" fill="white"/>
<path d="M131.266 344.572H114.857V360.98H131.266V344.572Z" fill="white"/>
<path d="M147.674 164.082H131.266V180.49H147.674V164.082Z" fill="white"/>
<path d="M147.674 196.898H131.266V213.307H147.674V196.898Z" fill="white"/>
<path d="M147.674 229.715H131.266V246.123H147.674V229.715Z" fill="white"/>
<path d="M147.674 262.531H131.266V278.939H147.674V262.531Z" fill="white"/>
<path d="M147.674 295.348H131.266V311.756H147.674V295.348Z" fill="white"/>
<path d="M147.674 328.164H131.266V344.572H147.674V328.164Z" fill="white"/>
<path d="M147.674 360.98H131.266V377.389H147.674V360.98Z" fill="white"/>
<path d="M164.082 164.082H147.674V180.49H164.082V164.082Z" fill="white"/>
<path d="M164.082 196.898H147.674V213.307H164.082V196.898Z" fill="white"/>
<path d="M164.082 213.307H147.674V229.715H164.082V213.307Z" fill="white"/>
<path d="M164.082 246.123H147.674V262.531H164.082V246.123Z" fill="white"/>
<path d="M164.082 295.348H147.674V311.756H164.082V295.348Z" fill="white"/>
<path d="M164.082 311.756H147.674V328.164H164.082V311.756Z" fill="white"/>
<path d="M164.082 328.164H147.674V344.572H164.082V328.164Z" fill="white"/>
<path d="M180.49 49.2246H164.082V65.6328H180.49V49.2246Z" fill="white"/>
<path d="M180.49 65.6328H164.082V82.041H180.49V65.6328Z" fill="white"/>
<path d="M180.49 98.4492H164.082V114.857H180.49V98.4492Z" fill="white"/>
<path d="M180.49 131.266H164.082V147.674H180.49V131.266Z" fill="white"/>
<path d="M180.49 147.674H164.082V164.082H180.49V147.674Z" fill="white"/>
<path d="M180.49 196.898H164.082V213.307H180.49V196.898Z" fill="white"/>
<path d="M180.49 213.307H164.082V229.715H180.49V213.307Z" fill="white"/>
<path d="M180.49 278.939H164.082V295.348H180.49V278.939Z" fill="white"/>
<path d="M180.49 295.348H164.082V311.756H180.49V295.348Z" fill="white"/>
<path d="M180.49 328.164H164.082V344.572H180.49V328.164Z" fill="white"/>
<path d="M180.49 360.98H164.082V377.389H180.49V360.98Z" fill="white"/>
<path d="M180.49 393.797H164.082V410.205H180.49V393.797Z" fill="white"/>
<path d="M180.49 426.613H164.082V443.021H180.49V426.613Z" fill="white"/>
<path d="M180.49 443.021H164.082V459.43H180.49V443.021Z" fill="white"/>
<path d="M180.49 459.43H164.082V475.838H180.49V459.43Z" fill="white"/>
<path d="M180.49 475.838H164.082V492.246H180.49V475.838Z" fill="white"/>
<path d="M180.49 492.246H164.082V508.654H180.49V492.246Z" fill="white"/>
<path d="M196.898 32.8164H180.49V49.2246H196.898V32.8164Z" fill="white"/>
<path d="M196.898 49.2246H180.49V65.6328H196.898V49.2246Z" fill="white"/>
<path d="M196.898 98.4492H180.49V114.857H196.898V98.4492Z" fill="white"/>
<path d="M196.898 114.857H180.49V131.266H196.898V114.857Z" fill="white"/>
<path d="M196.898 147.674H180.49V164.082H196.898V147.674Z" fill="white"/>
<path d="M196.898 164.082H180.49V180.49H196.898V164.082Z" fill="white"/>
<path d="M196.898 196.898H180.49V213.307H196.898V196.898Z" fill="white"/>
<path d="M196.898 278.939H180.49V295.348H196.898V278.939Z" fill="white"/>
<path d="M196.898 328.164H180.49V344.572H196.898V328.164Z" fill="white"/>
<path d="M196.898 344.572H180.49V360.98H196.898V344.572Z" fill="white"/>
<path d="M196.898 443.021H180.49V459.43H196.898V443.021Z" fill="white"/>
<path d="M196.898 492.246H180.49V508.654H196.898V492.246Z" fill="white"/>
<path d="M213.307 65.6328H196.898V82.041H213.307V65.6328Z" fill="white"/>
<path d="M213.307 114.857H196.898V131.266H213.307V114.857Z" fill="white"/>
<path d="M213.307 131.266H196.898V147.674H213.307V131.266Z" fill="white"/>
<path d="M213.307 147.674H196.898V164.082H213.307V147.674Z" fill="white"/>
<path d="M213.307 180.49H196.898V196.898H213.307V180.49Z" fill="white"/>
<path d="M213.307 229.715H196.898V246.123H213.307V229.715Z" fill="white"/>
<path d="M213.307 246.123H196.898V262.531H213.307V246.123Z" fill="white"/>
<path d="M213.307 278.939H196.898V295.348H213.307V278.939Z" fill="white"/>
<path d="M213.307 328.164H196.898V344.572H213.307V328.164Z" fill="white"/>
<path d="M213.307 360.98H196.898V377.389H213.307V360.98Z" fill="white"/>
<path d="M213.307 443.021H196.898V459.43H213.307V443.021Z" fill="white"/>
<path d="M213.307 459.43H196.898V475.838H213.307V459.43Z" fill="white"/>
<path d="M213.307 475.838H196.898V492.246H213.307V475.838Z" fill="white"/>
<path d="M213.307 492.246H196.898V508.654H213.307V492.246Z" fill="white"/>
<path d="M229.715 32.8164H213.307V49.2246H229.715V32.8164Z" fill="white"/>
<path d="M229.715 65.6328H213.307V82.041H229.715V65.6328Z" fill="white"/>
<path d="M229.715 82.041H213.307V98.4492H229.715V82.041Z" fill="white"/>
<path d="M229.715 98.4492H213.307V114.857H229.715V98.4492Z" fill="white"/>
<path d="M229.715 164.082H213.307V180.49H229.715V164.082Z" fill="white"/>
<path d="M229.715 180.49H213.307V196.898H229.715V180.49Z" fill="white"/>
<path d="M229.715 229.715H213.307V246.123H229.715V229.715Z" fill="white"/>
<path d="M229.715 295.348H213.307V311.756H229.715V295.348Z" fill="white"/>
<path d="M229.715 311.756H213.307V328.164H229.715V311.756Z" fill="white"/>
<path d="M229.715 328.164H213.307V344.572H229.715V328.164Z" fill="white"/>
<path d="M229.715 377.389H213.307V393.797H229.715V377.389Z" fill="white"/>
<path d="M229.715 393.797H213.307V410.205H229.715V393.797Z" fill="white"/>
<path d="M229.715 426.613H213.307V443.021H229.715V426.613Z" fill="white"/>
<path d="M229.715 443.021H213.307V459.43H229.715V443.021Z" fill="white"/>
<path d="M229.715 475.838H213.307V492.246H229.715V475.838Z" fill="white"/>
<path d="M246.123 65.6328H229.715V82.041H246.123V65.6328Z" fill="white"/>
<path d="M246.123 131.266H229.715V147.674H246.123V131.266Z" fill="white"/>
<path d="M246.123 147.674H229.715V164.082H246.123V147.674Z" fill="white"/>
<path d="M246.123 164.082H229.715V180.49H246.123V164.082Z" fill="white"/>
<path d="M246.123 196.898H229.715V213.307H246.123V196.898Z" fill="white"/>
<path d="M246.123 311.756H229.715V328.164H246.123V311.756Z" fill="white"/>
<path d="M246.123 328.164H229.715V344.572H246.123V328.164Z" fill="white"/>
<path d="M246.123 344.572H229.715V360.98H246.123V344.572Z" fill="white"/>
<path d="M246.123 393.797H229.715V410.205H246.123V393.797Z" fill="white"/>
<path d="M246.123 410.205H229.715V426.613H246.123V410.205Z" fill="white"/>
<path d="M246.123 443.021H229.715V459.43H246.123V443.021Z" fill="white"/>
<path d="M262.531 32.8164H246.123V49.2246H262.531V32.8164Z" fill="white"/>
<path d="M262.531 82.041H246.123V98.4492H262.531V82.041Z" fill="white"/>
<path d="M262.531 98.4492H246.123V114.857H262.531V98.4492Z" fill="white"/>
<path d="M262.531 147.674H246.123V164.082H262.531V147.674Z" fill="white"/>
<path d="M262.531 229.715H246.123V246.123H262.531V229.715Z" fill="white"/>
<path d="M262.531 262.531H246.123V278.939H262.531V262.531Z" fill="white"/>
<path d="M262.531 360.98H246.123V377.389H262.531V360.98Z" fill="white"/>
<path d="M262.531 377.389H246.123V393.797H262.531V377.389Z" fill="white"/>
<path d="M262.531 393.797H246.123V410.205H262.531V393.797Z" fill="white"/>
<path d="M262.531 410.205H246.123V426.613H262.531V410.205Z" fill="white"/>
<path d="M262.531 475.838H246.123V492.246H262.531V475.838Z" fill="white"/>
<path d="M262.531 492.246H246.123V508.654H262.531V492.246Z" fill="white"/>
<path d="M278.939 32.8164H262.531V49.2246H278.939V32.8164Z" fill="white"/>
<path d="M278.939 49.2246H262.531V65.6328H278.939V49.2246Z" fill="white"/>
<path d="M278.939 65.6328H262.531V82.041H278.939V65.6328Z" fill="white"/>
<path d="M278.939 131.266H262.531V147.674H278.939V131.266Z" fill="white"/>
<path d="M278.939 147.674H262.531V164.082H278.939V147.674Z" fill="white"/>
<path d="M278.939 164.082H262.531V180.49H278.939V164.082Z" fill="white"/>
<path d="M278.939 229.715H262.531V246.123H278.939V229.715Z" fill="white"/>
<path d="M278.939 246.123H262.531V262.531H278.939V246.123Z" fill="white"/>
<path d="M278.939 262.531H262.531V278.939H278.939V262.531Z" fill="white"/>
<path d="M278.939 278.939H262.531V295.348H278.939V278.939Z" fill="white"/>
<path d="M278.939 295.348H262.531V311.756H278.939V295.348Z" fill="white"/>
<path d="M278.939 311.756H262.531V328.164H278.939V311.756Z" fill="white"/>
<path d="M278.939 377.389H262.531V393.797H278.939V377.389Z" fill="white"/>
<path d="M278.939 393.797H262.531V410.205H278.939V393.797Z" fill="white"/>
<path d="M278.939 410.205H262.531V426.613H278.939V410.205Z" fill="white"/>
<path d="M278.939 459.43H262.531V475.838H278.939V459.43Z" fill="white"/>
<path d="M278.939 475.838H262.531V492.246H278.939V475.838Z" fill="white"/>
<path d="M278.939 492.246H262.531V508.654H278.939V492.246Z" fill="white"/>
<path d="M295.348 49.2246H278.939V65.6328H295.348V49.2246Z" fill="white"/>
<path d="M295.348 114.857H278.939V131.266H295.348V114.857Z" fill="white"/>
<path d="M295.348 213.307H278.939V229.715H295.348V213.307Z" fill="white"/>
<path d="M295.348 229.715H278.939V246.123H295.348V229.715Z" fill="white"/>
<path d="M295.348 262.531H278.939V278.939H295.348V262.531Z" fill="white"/>
<path d="M295.348 295.348H278.939V311.756H295.348V295.348Z" fill="white"/>
<path d="M295.348 344.572H278.939V360.98H295.348V344.572Z" fill="white"/>
<path d="M295.348 377.389H278.939V393.797H295.348V377.389Z" fill="white"/>
<path d="M295.348 393.797H278.939V410.205H295.348V393.797Z" fill="white"/>
<path d="M295.348 410.205H278.939V426.613H295.348V410.205Z" fill="white"/>
<path d="M295.348 475.838H278.939V492.246H295.348V475.838Z" fill="white"/>
<path d="M311.756 32.8164H295.348V49.2246H311.756V32.8164Z" fill="white"/>
<path d="M311.756 65.6328H295.348V82.041H311.756V65.6328Z" fill="white"/>
<path d="M311.756 98.4492H295.348V114.857H311.756V98.4492Z" fill="white"/>
<path d="M311.756 131.266H295.348V147.674H311.756V131.266Z" fill="white"/>
<path d="M311.756 164.082H295.348V180.49H311.756V164.082Z" fill="white"/>
<path d="M311.756 180.49H295.348V196.898H311.756V180.49Z" fill="white"/>
<path d="M311.756 196.898H295.348V213.307H311.756V196.898Z" fill="white"/>
<path d="M311.756 213.307H295.348V229.715H311.756V213.307Z" fill="white"/>
<path d="M311.756 377.389H295.348V393.797H311.756V377.389Z" fill="white"/>
<path d="M311.756 393.797H295.348V410.205H311.756V393.797Z" fill="white"/>
<path d="M311.756 443.021H295.348V459.43H311.756V443.021Z" fill="white"/>
<path d="M311.756 492.246H295.348V508.654H311.756V492.246Z" fill="white"/>
<path d="M328.164 49.2246H311.756V65.6328H328.164V49.2246Z" fill="white"/>
<path d="M328.164 82.041H311.756V98.4492H328.164V82.041Z" fill="white"/>
<path d="M328.164 114.857H311.756V131.266H328.164V114.857Z" fill="white"/>
<path d="M328.164 147.674H311.756V164.082H328.164V147.674Z" fill="white"/>
<path d="M328.164 180.49H311.756V196.898H328.164V180.49Z" fill="white"/>
<path d="M328.164 262.531H311.756V278.939H328.164V262.531Z" fill="white"/>
<path d="M328.164 278.939H311.756V295.348H328.164V278.939Z" fill="white"/>
<path d="M328.164 360.98H311.756V377.389H328.164V360.98Z" fill="white"/>
<path d="M328.164 377.389H311.756V393.797H328.164V377.389Z" fill="white"/>
<path d="M328.164 475.838H311.756V492.246H328.164V475.838Z" fill="white"/>
<path d="M328.164 492.246H311.756V508.654H328.164V492.246Z" fill="white"/>
<path d="M344.572 32.8164H328.164V49.2246H344.572V32.8164Z" fill="white"/>
<path d="M344.572 65.6328H328.164V82.041H344.572V65.6328Z" fill="white"/>
<path d="M344.572 98.4492H328.164V114.857H344.572V98.4492Z" fill="white"/>
<path d="M344.572 131.266H328.164V147.674H344.572V131.266Z" fill="white"/>
<path d="M344.572 164.082H328.164V180.49H344.572V164.082Z" fill="white"/>
<path d="M344.572 213.307H328.164V229.715H344.572V213.307Z" fill="white"/>
<path d="M344.572 246.123H328.164V262.531H344.572V246.123Z" fill="white"/>
<path d="M344.572 311.756H328.164V328.164H344.572V311.756Z" fill="white"/>
<path d="M344.572 360.98H328.164V377.389H344.572V360.98Z" fill="white"/>
<path d="M344.572 377.389H328.164V393.797H344.572V377.389Z" fill="white"/>
<path d="M344.572 410.205H328.164V426.613H344.572V410.205Z" fill="white"/>
<path d="M344.572 443.021H328.164V459.43H344.572V443.021Z" fill="white"/>
<path d="M344.572 459.43H328.164V475.838H344.572V459.43Z" fill="white"/>
<path d="M344.572 475.838H328.164V492.246H344.572V475.838Z" fill="white"/>
<path d="M344.572 492.246H328.164V508.654H344.572V492.246Z" fill="white"/>
<path d="M360.98 49.2246H344.572V65.6328H360.98V49.2246Z" fill="white"/>
<path d="M360.98 65.6328H344.572V82.041H360.98V65.6328Z" fill="white"/>
<path d="M360.98 82.041H344.572V98.4492H360.98V82.041Z" fill="white"/>
<path d="M360.98 164.082H344.572V180.49H360.98V164.082Z" fill="white"/>
<path d="M360.98 229.715H344.572V246.123H360.98V229.715Z" fill="white"/>
<path d="M360.98 262.531H344.572V278.939H360.98V262.531Z" fill="white"/>
<path d="M360.98 278.939H344.572V295.348H360.98V278.939Z" fill="white"/>
<path d="M360.98 311.756H344.572V328.164H360.98V311.756Z" fill="white"/>
<path d="M360.98 360.98H344.572V377.389H360.98V360.98Z" fill="white"/>
<path d="M360.98 393.797H344.572V410.205H360.98V393.797Z" fill="white"/>
<path d="M360.98 426.613H344.572V443.021H360.98V426.613Z" fill="white"/>
<path d="M360.98 475.838H344.572V492.246H360.98V475.838Z" fill="white"/>
<path d="M360.98 492.246H344.572V508.654H360.98V492.246Z" fill="white"/>
<path d="M377.389 32.8164H360.98V49.2246H377.389V32.8164Z" fill="white"/>
<path d="M377.389 65.6328H360.98V82.041H377.389V65.6328Z" fill="white"/>
<path d="M377.389 131.266H360.98V147.674H377.389V131.266Z" fill="white"/>
<path d="M377.389 164.082H360.98V180.49H377.389V164.082Z" fill="white"/>
<path d="M377.389 196.898H360.98V213.307H377.389V196.898Z" fill="white"/>
<path d="M377.389 213.307H360.98V229.715H377.389V213.307Z" fill="white"/>
<path d="M377.389 229.715H360.98V246.123H377.389V229.715Z" fill="white"/>
<path d="M377.389 295.348H360.98V311.756H377.389V295.348Z" fill="white"/>
<path d="M377.389 311.756H360.98V328.164H377.389V311.756Z" fill="white"/>
<path d="M377.389 360.98H360.98V377.389H377.389V360.98Z" fill="white"/>
<path d="M377.389 377.389H360.98V393.797H377.389V377.389Z" fill="white"/>
<path d="M377.389 393.797H360.98V410.205H377.389V393.797Z" fill="white"/>
<path d="M377.389 410.205H360.98V426.613H377.389V410.205Z" fill="white"/>
<path d="M377.389 426.613H360.98V443.021H377.389V426.613Z" fill="white"/>
<path d="M393.797 164.082H377.389V180.49H393.797V164.082Z" fill="white"/>
<path d="M393.797 180.49H377.389V196.898H393.797V180.49Z" fill="white"/>
<path d="M393.797 229.715H377.389V246.123H393.797V229.715Z" fill="white"/>
<path d="M393.797 246.123H377.389V262.531H393.797V246.123Z" fill="white"/>
<path d="M393.797 262.531H377.389V278.939H393.797V262.531Z" fill="white"/>
<path d="M393.797 311.756H377.389V328.164H393.797V311.756Z" fill="white"/>
<path d="M393.797 360.98H377.389V377.389H393.797V360.98Z" fill="white"/>
<path d="M393.797 426.613H377.389V443.021H393.797V426.613Z" fill="white"/>
<path d="M393.797 492.246H377.389V508.654H393.797V492.246Z" fill="white"/>
<path d="M410.205 164.082H393.797V180.49H410.205V164.082Z" fill="white"/>
<path d="M410.205 262.531H393.797V278.939H410.205V262.531Z" fill="white"/>
<path d="M410.205 328.164H393.797V344.572H410.205V328.164Z" fill="white"/>
<path d="M410.205 344.572H393.797V360.98H410.205V344.572Z" fill="white"/>
<path d="M410.205 360.98H393.797V377.389H410.205V360.98Z" fill="white"/>
<path d="M410.205 393.797H393.797V410.205H410.205V393.797Z" fill="white"/>
<path d="M410.205 426.613H393.797V443.021H410.205V426.613Z" fill="white"/>
<path d="M410.205 459.43H393.797V475.838H410.205V459.43Z" fill="white"/>
<path d="M410.205 492.246H393.797V508.654H410.205V492.246Z" fill="white"/>
<path d="M426.613 196.898H410.205V213.307H426.613V196.898Z" fill="white"/>
<path d="M426.613 246.123H410.205V262.531H426.613V246.123Z" fill="white"/>
<path d="M426.613 295.348H410.205V311.756H426.613V295.348Z" fill="white"/>
<path d="M426.613 311.756H410.205V328.164H426.613V311.756Z" fill="white"/>
<path d="M426.613 328.164H410.205V344.572H426.613V328.164Z" fill="white"/>
<path d="M426.613 360.98H410.205V377.389H426.613V360.98Z" fill="white"/>
<path d="M426.613 426.613H410.205V443.021H426.613V426.613Z" fill="white"/>
<path d="M426.613 492.246H410.205V508.654H426.613V492.246Z" fill="white"/>
<path d="M443.021 164.082H426.613V180.49H443.021V164.082Z" fill="white"/>
<path d="M443.021 213.307H426.613V229.715H443.021V213.307Z" fill="white"/>
<path d="M443.021 262.531H426.613V278.939H443.021V262.531Z" fill="white"/>
<path d="M443.021 278.939H426.613V295.348H443.021V278.939Z" fill="white"/>
<path d="M443.021 295.348H426.613V311.756H443.021V295.348Z" fill="white"/>
<path d="M443.021 328.164H426.613V344.572H443.021V328.164Z" fill="white"/>
<path d="M443.021 360.98H426.613V377.389H443.021V360.98Z" fill="white"/>
<path d="M443.021 377.389H426.613V393.797H443.021V377.389Z" fill="white"/>
<path d="M443.021 393.797H426.613V410.205H443.021V393.797Z" fill="white"/>
<path d="M443.021 410.205H426.613V426.613H443.021V410.205Z" fill="white"/>
<path d="M443.021 426.613H426.613V443.021H443.021V426.613Z" fill="white"/>
<path d="M443.021 443.021H426.613V459.43H443.021V443.021Z" fill="white"/>
<path d="M443.021 475.838H426.613V492.246H443.021V475.838Z" fill="white"/>
<path d="M459.43 180.49H443.021V196.898H459.43V180.49Z" fill="white"/>
<path d="M459.43 196.898H443.021V213.307H459.43V196.898Z" fill="white"/>
<path d="M459.43 213.307H443.021V229.715H459.43V213.307Z" fill="white"/>
<path d="M459.43 278.939H443.021V295.348H459.43V278.939Z" fill="white"/>
<path d="M459.43 295.348H443.021V311.756H459.43V295.348Z" fill="white"/>
<path d="M459.43 328.164H443.021V344.572H459.43V328.164Z" fill="white"/>
<path d="M459.43 360.98H443.021V377.389H459.43V360.98Z" fill="white"/>
<path d="M459.43 377.389H443.021V393.797H459.43V377.389Z" fill="white"/>
<path d="M459.43 426.613H443.021V443.021H459.43V426.613Z" fill="white"/>
<path d="M459.43 459.43H443.021V475.838H459.43V459.43Z" fill="white"/>
<path d="M475.838 164.082H459.43V180.49H475.838V164.082Z" fill="white"/>
<path d="M475.838 180.49H459.43V196.898H475.838V180.49Z" fill="white"/>
<path d="M475.838 213.307H459.43V229.715H475.838V213.307Z" fill="white"/>
<path d="M475.838 246.123H459.43V262.531H475.838V246.123Z" fill="white"/>
<path d="M475.838 278.939H459.43V295.348H475.838V278.939Z" fill="white"/>
<path d="M475.838 295.348H459.43V311.756H475.838V295.348Z" fill="white"/>
<path d="M475.838 328.164H459.43V344.572H475.838V328.164Z" fill="white"/>
<path d="M475.838 344.572H459.43V360.98H475.838V344.572Z" fill="white"/>
<path d="M475.838 410.205H459.43V426.613H475.838V410.205Z" fill="white"/>
<path d="M475.838 426.613H459.43V443.021H475.838V426.613Z" fill="white"/>
<path d="M475.838 459.43H459.43V475.838H475.838V459.43Z" fill="white"/>
<path d="M475.838 492.246H459.43V508.654H475.838V492.246Z" fill="white"/>
<path d="M492.246 164.082H475.838V180.49H492.246V164.082Z" fill="white"/>
<path d="M492.246 180.49H475.838V196.898H492.246V180.49Z" fill="white"/>
<path d="M492.246 196.898H475.838V213.307H492.246V196.898Z" fill="white"/>
<path d="M492.246 213.307H475.838V229.715H492.246V213.307Z" fill="white"/>
<path d="M492.246 229.715H475.838V246.123H492.246V229.715Z" fill="white"/>
<path d="M492.246 246.123H475.838V262.531H492.246V246.123Z" fill="white"/>
<path d="M492.246 262.531H475.838V278.939H492.246V262.531Z" fill="white"/>
<path d="M492.246 295.348H475.838V311.756H492.246V295.348Z" fill="white"/>
<path d="M492.246 311.756H475.838V328.164H492.246V311.756Z" fill="white"/>
<path d="M492.246 328.164H475.838V344.572H492.246V328.164Z" fill="white"/>
<path d="M492.246 344.572H475.838V360.98H492.246V344.572Z" fill="white"/>
<path d="M492.246 360.98H475.838V377.389H492.246V360.98Z" fill="white"/>
<path d="M492.246 377.389H475.838V393.797H492.246V377.389Z" fill="white"/>
<path d="M492.246 393.797H475.838V410.205H492.246V393.797Z" fill="white"/>
<path d="M492.246 410.205H475.838V426.613H492.246V410.205Z" fill="white"/>
<path d="M492.246 475.838H475.838V492.246H492.246V475.838Z" fill="white"/>
<path d="M508.654 180.49H492.246V196.898H508.654V180.49Z" fill="white"/>
<path d="M508.654 196.898H492.246V213.307H508.654V196.898Z" fill="white"/>
<path d="M508.654 213.307H492.246V229.715H508.654V213.307Z" fill="white"/>
<path d="M508.654 246.123H492.246V262.531H508.654V246.123Z" fill="white"/>
<path d="M508.654 262.531H492.246V278.939H508.654V262.531Z" fill="white"/>
<path d="M508.654 278.939H492.246V295.348H508.654V278.939Z" fill="white"/>
<path d="M508.654 295.348H492.246V311.756H508.654V295.348Z" fill="white"/>
<path d="M508.654 311.756H492.246V328.164H508.654V311.756Z" fill="white"/>
<path d="M508.654 344.572H492.246V360.98H508.654V344.572Z" fill="white"/>
<path d="M508.654 360.98H492.246V377.389H508.654V360.98Z" fill="white"/>
<path d="M508.654 377.389H492.246V393.797H508.654V377.389Z" fill="white"/>
<path d="M508.654 426.613H492.246V443.021H508.654V426.613Z" fill="white"/>
<path d="M508.654 443.021H492.246V459.43H508.654V443.021Z" fill="white"/>
<path d="M508.654 459.43H492.246V475.838H508.654V459.43Z" fill="white"/>
<path d="M508.654 475.838H492.246V492.246H508.654V475.838Z" fill="white"/>
<path d="M508.654 492.246H492.246V508.654H508.654V492.246Z" fill="white"/>
</mask>
<g mask="url(#mask0_5655_27057)">
<path d="M508.654 32.8164H32.8164V508.654H508.654V32.8164Z" fill="#20364B"/>
</g>
<mask id="mask1_5655_27057" style="mask-type:luminance" maskUnits="userSpaceOnUse" x="32" y="32" width="116" height="116">
<path d="M49.2246 32.8164H32.8164V49.2246H49.2246V32.8164Z" fill="white"/>
<path d="M49.2246 49.2246H32.8164V65.6328H49.2246V49.2246Z" fill="white"/>
<path d="M49.2246 65.6328H32.8164V82.041H49.2246V65.6328Z" fill="white"/>
<path d="M49.2246 82.041H32.8164V98.4492H49.2246V82.041Z" fill="white"/>
<path d="M49.2246 98.4492H32.8164V114.857H49.2246V98.4492Z" fill="white"/>
<path d="M49.2246 114.857H32.8164V131.266H49.2246V114.857Z" fill="white"/>
<path d="M49.2246 131.266H32.8164V147.674H49.2246V131.266Z" fill="white"/>
<path d="M65.6328 32.8164H49.2246V49.2246H65.6328V32.8164Z" fill="white"/>
<path d="M65.6328 131.266H49.2246V147.674H65.6328V131.266Z" fill="white"/>
<path d="M82.041 32.8164H65.6328V49.2246H82.041V32.8164Z" fill="white"/>
<path d="M82.041 131.266H65.6328V147.674H82.041V131.266Z" fill="white"/>
<path d="M98.4492 32.8164H82.041V49.2246H98.4492V32.8164Z" fill="white"/>
<path d="M98.4492 131.266H82.041V147.674H98.4492V131.266Z" fill="white"/>
<path d="M114.857 32.8164H98.4492V49.2246H114.857V32.8164Z" fill="white"/>
<path d="M114.857 131.266H98.4492V147.674H114.857V131.266Z" fill="white"/>
<path d="M131.266 32.8164H114.857V49.2246H131.266V32.8164Z" fill="white"/>
<path d="M131.266 131.266H114.857V147.674H131.266V131.266Z" fill="white"/>
<path d="M147.674 32.8164H131.266V49.2246H147.674V32.8164Z" fill="white"/>
<path d="M147.674 49.2246H131.266V65.6328H147.674V49.2246Z" fill="white"/>
<path d="M147.674 65.6328H131.266V82.041H147.674V65.6328Z" fill="white"/>
<path d="M147.674 82.041H131.266V98.4492H147.674V82.041Z" fill="white"/>
<path d="M147.674 98.4492H131.266V114.857H147.674V98.4492Z" fill="white"/>
<path d="M147.674 114.857H131.266V131.266H147.674V114.857Z" fill="white"/>
<path d="M147.674 131.266H131.266V147.674H147.674V131.266Z" fill="white"/>
</mask>
<g mask="url(#mask1_5655_27057)">
<path d="M147.674 32.8164H32.8164V147.674H147.674V32.8164Z" fill="#20364B"/>
</g>
<mask id="mask2_5655_27057" style="mask-type:luminance" maskUnits="userSpaceOnUse" x="65" y="65" width="50" height="50">
<path d="M82.041 65.6328H65.6328V82.041H82.041V65.6328Z" fill="white"/>
<path d="M82.041 82.041H65.6328V98.4492H82.041V82.041Z" fill="white"/>
<path d="M82.041 98.4492H65.6328V114.857H82.041V98.4492Z" fill="white"/>
<path d="M98.4492 65.6328H82.041V82.041H98.4492V65.6328Z" fill="white"/>
<path d="M98.4492 82.041H82.041V98.4492H98.4492V82.041Z" fill="white"/>
<path d="M98.4492 98.4492H82.041V114.857H98.4492V98.4492Z" fill="white"/>
<path d="M114.857 65.6328H98.4492V82.041H114.857V65.6328Z" fill="white"/>
<path d="M114.857 82.041H98.4492V98.4492H114.857V82.041Z" fill="white"/>
<path d="M114.857 98.4492H98.4492V114.857H114.857V98.4492Z" fill="white"/>
</mask>
<g mask="url(#mask2_5655_27057)">
<path d="M114.857 65.6328H65.6328V114.857H114.857V65.6328Z" fill="#20364B"/>
</g>
<mask id="mask3_5655_27057" style="mask-type:luminance" maskUnits="userSpaceOnUse" x="393" y="32" width="116" height="116">
<path d="M410.205 32.8164H393.797V49.2246H410.205V32.8164Z" fill="white"/>
<path d="M410.205 49.2246H393.797V65.6328H410.205V49.2246Z" fill="white"/>
<path d="M410.205 65.6328H393.797V82.041H410.205V65.6328Z" fill="white"/>
<path d="M410.205 82.041H393.797V98.4492H410.205V82.041Z" fill="white"/>
<path d="M410.205 98.4492H393.797V114.857H410.205V98.4492Z" fill="white"/>
<path d="M410.205 114.857H393.797V131.266H410.205V114.857Z" fill="white"/>
<path d="M410.205 131.266H393.797V147.674H410.205V131.266Z" fill="white"/>
<path d="M426.613 32.8164H410.205V49.2246H426.613V32.8164Z" fill="white"/>
<path d="M426.613 131.266H410.205V147.674H426.613V131.266Z" fill="white"/>
<path d="M443.021 32.8164H426.613V49.2246H443.021V32.8164Z" fill="white"/>
<path d="M443.021 131.266H426.613V147.674H443.021V131.266Z" fill="white"/>
<path d="M459.43 32.8164H443.021V49.2246H459.43V32.8164Z" fill="white"/>
<path d="M459.43 131.266H443.021V147.674H459.43V131.266Z" fill="white"/>
<path d="M475.838 32.8164H459.43V49.2246H475.838V32.8164Z" fill="white"/>
<path d="M475.838 131.266H459.43V147.674H475.838V131.266Z" fill="white"/>
<path d="M492.246 32.8164H475.838V49.2246H492.246V32.8164Z" fill="white"/>
<path d="M492.246 131.266H475.838V147.674H492.246V131.266Z" fill="white"/>
<path d="M508.654 32.8164H492.246V49.2246H508.654V32.8164Z" fill="white"/>
<path d="M508.654 49.2246H492.246V65.6328H508.654V49.2246Z" fill="white"/>
<path d="M508.654 65.6328H492.246V82.041H508.654V65.6328Z" fill="white"/>
<path d="M508.654 82.041H492.246V98.4492H508.654V82.041Z" fill="white"/>
<path d="M508.654 98.4492H492.246V114.857H508.654V98.4492Z" fill="white"/>
<path d="M508.654 114.857H492.246V131.266H508.654V114.857Z" fill="white"/>
<path d="M508.654 131.266H492.246V147.674H508.654V131.266Z" fill="white"/>
</mask>
<g mask="url(#mask3_5655_27057)">
<path d="M508.654 32.8164H393.797V147.674H508.654V32.8164Z" fill="#20364B"/>
</g>
<mask id="mask4_5655_27057" style="mask-type:luminance" maskUnits="userSpaceOnUse" x="426" y="65" width="50" height="50">
<path d="M443.021 65.6328H426.613V82.041H443.021V65.6328Z" fill="white"/>
<path d="M443.021 82.041H426.613V98.4492H443.021V82.041Z" fill="white"/>
<path d="M443.021 98.4492H426.613V114.857H443.021V98.4492Z" fill="white"/>
<path d="M459.43 65.6328H443.021V82.041H459.43V65.6328Z" fill="white"/>
<path d="M459.43 82.041H443.021V98.4492H459.43V82.041Z" fill="white"/>
<path d="M459.43 98.4492H443.021V114.857H459.43V98.4492Z" fill="white"/>
<path d="M475.838 65.6328H459.43V82.041H475.838V65.6328Z" fill="white"/>
<path d="M475.838 82.041H459.43V98.4492H475.838V82.041Z" fill="white"/>
<path d="M475.838 98.4492H459.43V114.857H475.838V98.4492Z" fill="white"/>
</mask>
<g mask="url(#mask4_5655_27057)">
<path d="M475.838 65.6328H426.613V114.857H475.838V65.6328Z" fill="#20364B"/>
</g>
<mask id="mask5_5655_27057" style="mask-type:luminance" maskUnits="userSpaceOnUse" x="32" y="393" width="116" height="116">
<path d="M49.2246 393.797H32.8164V410.205H49.2246V393.797Z" fill="white"/>
<path d="M49.2246 410.205H32.8164V426.613H49.2246V410.205Z" fill="white"/>
<path d="M49.2246 426.613H32.8164V443.021H49.2246V426.613Z" fill="white"/>
<path d="M49.2246 443.021H32.8164V459.43H49.2246V443.021Z" fill="white"/>
<path d="M49.2246 459.43H32.8164V475.838H49.2246V459.43Z" fill="white"/>
<path d="M49.2246 475.838H32.8164V492.246H49.2246V475.838Z" fill="white"/>
<path d="M49.2246 492.246H32.8164V508.654H49.2246V492.246Z" fill="white"/>
<path d="M65.6328 393.797H49.2246V410.205H65.6328V393.797Z" fill="white"/>
<path d="M65.6328 492.246H49.2246V508.654H65.6328V492.246Z" fill="white"/>
<path d="M82.041 393.797H65.6328V410.205H82.041V393.797Z" fill="white"/>
<path d="M82.041 492.246H65.6328V508.654H82.041V492.246Z" fill="white"/>
<path d="M98.4492 393.797H82.041V410.205H98.4492V393.797Z" fill="white"/>
<path d="M98.4492 492.246H82.041V508.654H98.4492V492.246Z" fill="white"/>
<path d="M114.857 393.797H98.4492V410.205H114.857V393.797Z" fill="white"/>
<path d="M114.857 492.246H98.4492V508.654H114.857V492.246Z" fill="white"/>
<path d="M131.266 393.797H114.857V410.205H131.266V393.797Z" fill="white"/>
<path d="M131.266 492.246H114.857V508.654H131.266V492.246Z" fill="white"/>
<path d="M147.674 393.797H131.266V410.205H147.674V393.797Z" fill="white"/>
<path d="M147.674 410.205H131.266V426.613H147.674V410.205Z" fill="white"/>
<path d="M147.674 426.613H131.266V443.021H147.674V426.613Z" fill="white"/>
<path d="M147.674 443.021H131.266V459.43H147.674V443.021Z" fill="white"/>
<path d="M147.674 459.43H131.266V475.838H147.674V459.43Z" fill="white"/>
<path d="M147.674 475.838H131.266V492.246H147.674V475.838Z" fill="white"/>
<path d="M147.674 492.246H131.266V508.654H147.674V492.246Z" fill="white"/>
</mask>
<g mask="url(#mask5_5655_27057)">
<path d="M147.674 393.797H32.8164V508.654H147.674V393.797Z" fill="#20364B"/>
</g>
<mask id="mask6_5655_27057" style="mask-type:luminance" maskUnits="userSpaceOnUse" x="65" y="426" width="50" height="50">
<path d="M82.041 426.613H65.6328V443.021H82.041V426.613Z" fill="white"/>
<path d="M82.041 443.021H65.6328V459.43H82.041V443.021Z" fill="white"/>
<path d="M82.041 459.43H65.6328V475.838H82.041V459.43Z" fill="white"/>
<path d="M98.4492 426.613H82.041V443.021H98.4492V426.613Z" fill="white"/>
<path d="M98.4492 443.021H82.041V459.43H98.4492V443.021Z" fill="white"/>
<path d="M98.4492 459.43H82.041V475.838H98.4492V459.43Z" fill="white"/>
<path d="M114.857 426.613H98.4492V443.021H114.857V426.613Z" fill="white"/>
<path d="M114.857 443.021H98.4492V459.43H114.857V443.021Z" fill="white"/>
<path d="M114.857 459.43H98.4492V475.838H114.857V459.43Z" fill="white"/>
</mask>
<g mask="url(#mask6_5655_27057)">
<path d="M114.857 426.613H65.6328V475.838H114.857V426.613Z" fill="#20364B"/>
</g>
<circle cx="271.018" cy="270.018" r="73.0175" fill="#FFF9F1"/>
<path d="M274.77 233.333C278.895 233.344 280.989 233.366 282.796 233.417L283.508 233.443C284.329 233.472 285.139 233.509 286.118 233.553C290.02 233.736 292.682 234.352 295.017 235.258C297.437 236.189 299.476 237.451 301.515 239.486C303.38 241.318 304.823 243.535 305.742 245.983C306.648 248.319 307.264 250.981 307.447 254.886C307.491 255.861 307.528 256.671 307.557 257.496L307.579 258.208C307.634 260.012 307.656 262.105 307.664 266.23L307.667 268.966V273.769C307.676 276.443 307.648 279.118 307.583 281.792L307.561 282.503C307.532 283.328 307.495 284.138 307.451 285.114C307.268 289.019 306.644 291.677 305.742 294.016C304.823 296.464 303.38 298.681 301.515 300.514C299.682 302.379 297.465 303.822 295.017 304.741C292.682 305.647 290.02 306.263 286.118 306.446L283.508 306.556L282.796 306.578C280.989 306.63 278.895 306.655 274.77 306.663L272.035 306.666H267.235C264.559 306.676 261.884 306.648 259.209 306.582L258.497 306.56C257.627 306.527 256.757 306.489 255.887 306.446C251.985 306.263 249.323 305.647 246.984 304.741C244.538 303.821 242.322 302.378 240.49 300.514C238.624 298.682 237.18 296.464 236.259 294.016C235.353 291.681 234.737 289.019 234.554 285.114L234.444 282.503L234.426 281.792C234.358 279.118 234.328 276.444 234.334 273.769V266.23C234.324 263.556 234.351 260.881 234.415 258.208L234.44 257.496C234.47 256.671 234.506 255.861 234.55 254.886C234.734 250.981 235.35 248.322 236.255 245.983C237.178 243.534 238.625 241.317 240.494 239.486C242.324 237.621 244.539 236.179 246.984 235.258C249.323 234.352 251.982 233.736 255.887 233.553C256.862 233.509 257.676 233.472 258.497 233.443L259.209 233.421C261.882 233.356 264.557 233.328 267.231 233.337L274.77 233.333ZM271.001 251.666C266.138 251.666 261.475 253.598 258.037 257.036C254.599 260.474 252.667 265.137 252.667 270C252.667 274.862 254.599 279.525 258.037 282.963C261.475 286.401 266.138 288.333 271.001 288.333C275.863 288.333 280.526 286.401 283.964 282.963C287.403 279.525 289.334 274.862 289.334 270C289.334 265.137 287.403 260.474 283.964 257.036C280.526 253.598 275.863 251.666 271.001 251.666ZM271.001 259C272.445 258.999 273.876 259.284 275.21 259.836C276.545 260.389 277.758 261.199 278.779 262.22C279.801 263.241 280.612 264.454 281.165 265.788C281.718 267.123 282.002 268.553 282.003 269.998C282.003 271.442 281.719 272.873 281.166 274.208C280.613 275.542 279.803 276.755 278.782 277.777C277.761 278.798 276.548 279.609 275.214 280.162C273.879 280.715 272.449 280.999 271.004 281C268.087 281 265.289 279.841 263.226 277.778C261.163 275.715 260.004 272.917 260.004 270C260.004 267.082 261.163 264.284 263.226 262.221C265.289 260.159 268.087 259 271.004 259M290.254 246.166C289.039 246.166 287.873 246.649 287.014 247.509C286.154 248.368 285.671 249.534 285.671 250.75C285.671 251.965 286.154 253.131 287.014 253.991C287.873 254.85 289.039 255.333 290.254 255.333C291.47 255.333 292.636 254.85 293.495 253.991C294.355 253.131 294.838 251.965 294.838 250.75C294.838 249.534 294.355 248.368 293.495 247.509C292.636 246.649 291.47 246.166 290.254 246.166Z" fill="#B02316"/>
</g>
<defs>
<clipPath id="clip0_5655_27057">
<rect width="542" height="542" fill="white"/>
</clipPath>
</defs>
</svg>
