<svg width="74" height="74" viewBox="0 0 74 74" fill="none" xmlns="http://www.w3.org/2000/svg">
<path d="M40.4381 0C44.5631 0.011 46.6567 0.033 48.4644 0.0843333L49.1757 0.11C49.9971 0.139333 50.8074 0.176 51.7864 0.22C55.6877 0.403333 58.3497 1.01933 60.6854 1.925C63.1054 2.85633 65.1441 4.11767 67.1827 6.15267C69.048 7.98502 70.4908 10.2024 71.4104 12.65C72.3161 14.9857 72.9321 17.6477 73.1154 21.5527C73.1594 22.528 73.1961 23.3383 73.2254 24.1633L73.2474 24.8747C73.3024 26.6787 73.3244 28.7723 73.3317 32.8973L73.3354 35.6327V40.436C73.3443 43.1105 73.3162 45.785 73.2511 48.4587L73.2291 49.17C73.1998 49.995 73.1631 50.8053 73.1191 51.7807C72.9357 55.6857 72.3124 58.344 71.4104 60.6833C70.4908 63.1309 69.048 65.3483 67.1827 67.1807C65.3504 69.0459 63.133 70.4887 60.6854 71.4083C58.3497 72.314 55.6877 72.93 51.7864 73.1133L49.1757 73.2233L48.4644 73.2453C46.6567 73.2967 44.5631 73.3223 40.4381 73.3297L37.7027 73.3333H32.9031C30.2274 73.3428 27.5517 73.3147 24.8768 73.249L24.1654 73.227C23.295 73.194 22.4248 73.1561 21.5548 73.1133C17.6534 72.93 14.9914 72.314 12.6521 71.4083C10.2058 70.4882 7.98971 69.0454 6.15842 67.1807C4.29188 65.3487 2.84782 63.1313 1.92709 60.6833C1.02142 58.3477 0.405419 55.6857 0.222085 51.7807L0.112085 49.17L0.0937526 48.4587C0.0261614 45.785 -0.00439741 43.1105 0.00208559 40.436V32.8973C-0.00806336 30.2229 0.0188284 27.5484 0.0827525 24.8747L0.108419 24.1633C0.137752 23.3383 0.174419 22.528 0.218419 21.5527C0.401752 17.6477 1.01775 14.9893 1.92342 12.65C2.8463 10.2014 4.2929 7.98393 6.16209 6.15267C7.99231 4.28835 10.2071 2.8456 12.6521 1.925C14.9914 1.01933 17.6498 0.403333 21.5548 0.22C22.5301 0.176 23.3441 0.139333 24.1654 0.11L24.8768 0.0879997C27.5505 0.0228533 30.2249 -0.00526056 32.8994 0.0036664L40.4381 0ZM36.6687 18.3333C31.8064 18.3333 27.1433 20.2649 23.7051 23.703C20.267 27.1412 18.3354 31.8044 18.3354 36.6667C18.3354 41.529 20.267 46.1921 23.7051 49.6303C27.1433 53.0685 31.8064 55 36.6687 55C41.5311 55 46.1942 53.0685 49.6324 49.6303C53.0705 46.1921 55.0021 41.529 55.0021 36.6667C55.0021 31.8044 53.0705 27.1412 49.6324 23.703C46.1942 20.2649 41.5311 18.3333 36.6687 18.3333ZM36.6687 25.6667C38.1133 25.6664 39.5437 25.9507 40.8784 26.5033C42.2131 27.0559 43.4258 27.8659 44.4475 28.8872C45.4691 29.9085 46.2795 31.121 46.8326 32.4555C47.3856 33.7899 47.6703 35.2203 47.6706 36.6648C47.6708 38.1094 47.3865 39.5398 46.834 40.8745C46.2814 42.2092 45.4713 43.4219 44.4501 44.4435C43.4288 45.4652 42.2163 46.2756 40.8818 46.8286C39.5473 47.3817 38.117 47.6664 36.6724 47.6667C33.755 47.6667 30.9571 46.5077 28.8942 44.4448C26.8313 42.3819 25.6724 39.584 25.6724 36.6667C25.6724 33.7493 26.8313 30.9514 28.8942 28.8885C30.9571 26.8256 33.755 25.6667 36.6724 25.6667M55.9224 12.8333C54.7068 12.8333 53.5411 13.3162 52.6815 14.1758C51.822 15.0353 51.3391 16.2011 51.3391 17.4167C51.3391 18.6322 51.822 19.798 52.6815 20.6576C53.5411 21.5171 54.7068 22 55.9224 22C57.138 22 58.3038 21.5171 59.1633 20.6576C60.0229 19.798 60.5057 18.6322 60.5057 17.4167C60.5057 16.2011 60.0229 15.0353 59.1633 14.1758C58.3038 13.3162 57.138 12.8333 55.9224 12.8333Z" fill="#B02316"/>
</svg>
