<svg width="77" height="77" viewBox="0 0 77 77" fill="none" xmlns="http://www.w3.org/2000/svg">
<path d="M68.5845 0H7.6205C3.42922 0 0 3.42922 0 7.6205V76.205L15.241 60.964H68.5845C72.7758 60.964 76.205 57.5348 76.205 53.3435V7.6205C76.205 3.42922 72.7758 0 68.5845 0ZM15.241 45.723V36.3117L41.4555 10.0972C42.2176 9.33511 43.3987 9.33511 44.1608 10.0972L50.9049 16.8413C51.667 17.6034 51.667 18.7845 50.9049 19.5466L24.6523 45.723H15.241ZM57.1537 45.723H32.3871L40.0076 38.1025H57.1537C59.2494 38.1025 60.964 39.8171 60.964 41.9127C60.964 44.0084 59.2494 45.723 57.1537 45.723Z" fill="#B02316"/>
</svg>
