<svg width="70" height="70" viewBox="0 0 70 70" fill="none" xmlns="http://www.w3.org/2000/svg">
<path d="M62.2222 9.72223H7.77778C5.71498 9.72223 3.73667 10.5417 2.27806 12.0003C0.819442 13.4589 0 15.4372 0 17.5L0 35H70V17.5C70 15.4372 69.1806 13.4589 67.7219 12.0003C66.2633 10.5417 64.285 9.72223 62.2222 9.72223Z" fill="#005BBB"/>
<path d="M70 52.5C70 54.5628 69.1806 56.5411 67.7219 57.9997C66.2633 59.4583 64.285 60.2778 62.2222 60.2778H7.77778C5.71498 60.2778 3.73667 59.4583 2.27806 57.9997C0.819442 56.5411 0 54.5628 0 52.5V35H70V52.5Z" fill="#FFD500"/>
</svg>
